<svg xmlns="http://www.w3.org/2000/svg" viewBox="0 0 42.22 41.43"><defs><style>.cls-1{fill:#e7641a;}</style></defs><g id="Capa_2" data-name="Capa 2"><g id="Capa_1-2" data-name="Capa 1"><path class="cls-1" d="M39.75,24.81h-9.9v-3.9a3.2,3.2,0,0,0-.43-1.61A.68.68,0,0,0,29.8,19a.65.65,0,0,0,0-.67L22.3,7.05V5.25l4.61-1.9a.65.65,0,0,0,.41-.6.66.66,0,0,0-.41-.61L21.83.05a.66.66,0,0,0-.61.06.65.65,0,0,0-.29.54V4.84a.57.57,0,0,0,.07.29v2L13.57,18.32a.67.67,0,0,0,0,.67.63.63,0,0,0,.37.31,3.3,3.3,0,0,0-.42,1.61v3.9h-11A2.48,2.48,0,0,0,0,27.28V39a2.48,2.48,0,0,0,2.47,2.48H39.75A2.48,2.48,0,0,0,42.22,39V27.28A2.48,2.48,0,0,0,39.75,24.81ZM22.23,1.63,25,2.75,22.23,3.87Zm-.56,6.83L28,18H15.33ZM23.19,40H19.55V32.79h3.64ZM40.92,39a1.17,1.17,0,0,1-1.17,1.17H24.49v-8a.65.65,0,0,0-.65-.65H18.89a.65.65,0,0,0-.65.65v8H2.47A1.17,1.17,0,0,1,1.3,39V27.28a1.17,1.17,0,0,1,1.17-1.17H14.15a.64.64,0,0,0,.48-.21.67.67,0,0,0,.17-.49c0-.05,0-.1,0-.16V20.91c0-.85.54-1.57,1.17-1.57H27.37c.64,0,1.17.72,1.17,1.57v4.34a.81.81,0,0,1,0,.16.64.64,0,0,0,.18.49.61.61,0,0,0,.48.21H39.75a1.17,1.17,0,0,1,1.17,1.17Z"/><path class="cls-1" d="M20.52,22.07H17.26a.32.32,0,0,0-.32.32v3.26a.32.32,0,0,0,.32.33h3.26a.33.33,0,0,0,.33-.33V22.39A.32.32,0,0,0,20.52,22.07Zm-.32,3.26H17.59V22.72H20.2Z"/><path class="cls-1" d="M25.75,22.07H22.49a.32.32,0,0,0-.32.32v3.26a.32.32,0,0,0,.32.33h3.26a.33.33,0,0,0,.33-.33V22.39A.32.32,0,0,0,25.75,22.07Zm-.32,3.26H22.82V22.72h2.61Z"/><path class="cls-1" d="M8.3,31.28H5a.33.33,0,0,0-.33.33v3.26a.32.32,0,0,0,.33.32H8.3a.32.32,0,0,0,.32-.32V31.61A.32.32,0,0,0,8.3,31.28ZM8,34.54H5.36V31.93H8Z"/><path class="cls-1" d="M13.52,31.28H10.26a.32.32,0,0,0-.32.33v3.26a.32.32,0,0,0,.32.32h3.26a.32.32,0,0,0,.33-.32V31.61A.33.33,0,0,0,13.52,31.28Zm-.32,3.26H10.59V31.93H13.2Z"/><path class="cls-1" d="M32.54,31.28H29.28a.32.32,0,0,0-.32.33v3.26a.32.32,0,0,0,.32.32h3.26a.32.32,0,0,0,.33-.32V31.61A.33.33,0,0,0,32.54,31.28Zm-.32,3.26H29.61V31.93h2.61Z"/><path class="cls-1" d="M37.77,31.28H34.51a.33.33,0,0,0-.33.33v3.26a.32.32,0,0,0,.33.32h3.26a.32.32,0,0,0,.32-.32V31.61A.32.32,0,0,0,37.77,31.28Zm-.33,3.26h-2.6V31.93h2.6Z"/></g></g></svg>