<svg xmlns="http://www.w3.org/2000/svg" viewBox="0 0 30.45 39.64"><defs><style>.cls-1{fill:#e7641a;}</style></defs><g id="Capa_2" data-name="Capa 2"><g id="Capa_1-2" data-name="Capa 1"><path class="cls-1" d="M4.31,39.17a1,1,0,0,0,.84.47H22.81a1,1,0,0,0,.82-.43l4.66-6.82a1,1,0,0,0,.06-1,1,1,0,0,0-.87-.53H11.35v-2H29.46a1,1,0,0,0,.73-.31,1,1,0,0,0,.26-.76,45,45,0,0,0-2.6-10.92C25,9.31,20.52,4.06,14.81,1.65a1,1,0,0,0-.58-.19H11.35V1a1,1,0,0,0-2,0V30.84H1a1,1,0,0,0-.85,1.51Zm10.85-16V4c6.29,3.21,9.66,9.88,11.44,15.38.44,1.37.79,2.67,1,3.82.36,1.57.58,2.88.7,3.73H15.16ZM11.35,3.44h1.83V26.91H11.35ZM25.6,32.82l-3.31,4.85H5.71l-3-4.85Z"/></g></g></svg>