<svg xmlns="http://www.w3.org/2000/svg" viewBox="0 0 48.39 22"><defs><style>.cls-1{fill:#e7641a;}</style></defs><g id="Capa_2" data-name="Capa 2"><g id="Capa_1-2" data-name="Capa 1"><path class="cls-1" d="M31.55,22h16a.82.82,0,0,0,.64-1.32L35.33,4.14a.82.82,0,0,0-1.28,0L31.6,7.28a6,6,0,0,0-10.2-.9L16.83.32A.81.81,0,0,0,16.18,0a.84.84,0,0,0-.65.32L.16,20.69a.83.83,0,0,0-.07.86A.82.82,0,0,0,.82,22H31.55ZM16.18,2.17l13.73,18.2H2.45ZM30.45,8.76l-3.69,4.73L22.43,7.75a4.43,4.43,0,0,1,8,1ZM32,20.37l-4.18-5.54L34.69,6l11.22,14.4Z"/></g></g></svg>