<svg xmlns="http://www.w3.org/2000/svg" viewBox="0 0 29.7 20.22"><defs><style>.cls-1{fill:#e7641a;}</style></defs><g id="Capa_2" data-name="Capa 2"><g id="Capa_1-2" data-name="Capa 1"><path class="cls-1" d="M27,20.22a2.67,2.67,0,0,0,2.68-2.66l.05-14.8A2.68,2.68,0,0,0,27,.08L2.73,0h0A2.67,2.67,0,0,0,.05,2.67L0,17.46a2.68,2.68,0,0,0,2.67,2.68l24.3.08ZM3.67,19h-1a1.59,1.59,0,0,1-1.09-.46,1.54,1.54,0,0,1-.45-1.1l0-14.79A1.56,1.56,0,0,1,2.72,1.13h0L27,1.21a1.54,1.54,0,0,1,1.54,1.55l-.05,14.79A1.55,1.55,0,0,1,27,19.1h0L3.67,19Z"/><path class="cls-1" d="M25.6,2.34H20a.29.29,0,0,0-.28.29v7.48a.28.28,0,0,0,.28.28H25.6a.28.28,0,0,0,.28-.28V2.63A.29.29,0,0,0,25.6,2.34Zm-.28,7.49H20.25V2.91h5.07Z"/><path class="cls-1" d="M4.61,12.52h8.73a.56.56,0,0,0,.57-.56.57.57,0,0,0-.57-.57H4.61a.57.57,0,0,0-.56.57A.56.56,0,0,0,4.61,12.52Z"/><path class="cls-1" d="M17.43,14.63H4.61a.57.57,0,0,0,0,1.13H17.43a.57.57,0,0,0,0-1.13Z"/></g></g></svg>