<svg xmlns="http://www.w3.org/2000/svg" viewBox="0 0 35.72 38.93"><defs><style>.cls-1{fill:#e7641a;}</style></defs><g id="Capa_2" data-name="Capa 2"><g id="Capa_1-2" data-name="Capa 1"><path class="cls-1" d="M9.57,23.83h2.69v8.44a.46.46,0,0,0,.46.46h2.36a.46.46,0,0,0,.46-.46V19.37a.46.46,0,0,0-.46-.46h-2a.46.46,0,0,0-.46.46,1.89,1.89,0,0,1-.08.39,1.69,1.69,0,0,1-.39.73,1.88,1.88,0,0,1-1,.54,9.69,9.69,0,0,1-1.6.15.46.46,0,0,0-.44.46v1.72A.47.47,0,0,0,9.57,23.83ZM10,22.08a8.65,8.65,0,0,0,1.31-.15A2.61,2.61,0,0,0,13.42,20c0-.06,0-.12,0-.18h1.16v12H13.18V23.36a.47.47,0,0,0-.46-.46H10Z"/><path class="cls-1" d="M18.28,31.75a5,5,0,0,0,3.31,1.09,4.62,4.62,0,0,0,3.78-1.57,5.39,5.39,0,0,0,1.25-3.48,4.35,4.35,0,0,0-4.43-4.66,4.18,4.18,0,0,0-1.5.24l-.22.09.12-1.5H24.8a.47.47,0,0,0,.47-.47V19.35a.47.47,0,0,0-.47-.47H17.9a.45.45,0,0,0-.46.44L17,26.42a.47.47,0,0,0,.12.34.44.44,0,0,0,.32.15l2.53.11a.47.47,0,0,0,.43-.25,1.08,1.08,0,0,1,.63-.56,2,2,0,0,1,.65-.09,1.17,1.17,0,0,1,1.05.47,2.48,2.48,0,0,1,.38,1.4,2.31,2.31,0,0,1-.4,1.39,1.2,1.2,0,0,1-1.06.48,1.16,1.16,0,0,1-.9-.31,2.05,2.05,0,0,1-.46-1,.45.45,0,0,0-.45-.37H17.27a.48.48,0,0,0-.34.14.46.46,0,0,0-.12.35A4.28,4.28,0,0,0,18.28,31.75Zm1.14-2.69A2.62,2.62,0,0,0,20,30.19a2.07,2.07,0,0,0,1.57.59,2.1,2.1,0,0,0,1.8-.85A3.15,3.15,0,0,0,24,28a3.36,3.36,0,0,0-.54-1.92,2.05,2.05,0,0,0-1.81-.88,3.13,3.13,0,0,0-1,.14,2.06,2.06,0,0,0-1,.75L17.91,26l.42-6.2h6V21H20.17a.46.46,0,0,0-.46.43l-.23,2.81a.45.45,0,0,0,.22.43.46.46,0,0,0,.49,0,4.64,4.64,0,0,1,.82-.46,3.59,3.59,0,0,1,1.18-.17,3.41,3.41,0,0,1,3.5,3.73,4.41,4.41,0,0,1-1,2.89,3.66,3.66,0,0,1-3.06,1.23A4,4,0,0,1,18.88,31a3.17,3.17,0,0,1-1.09-2Z"/><path class="cls-1" d="M31.79,6H30.65a.81.81,0,0,0-.27.05V2.28a2.29,2.29,0,0,0-4.57,0V6H10L9.86,6V2.28a2.28,2.28,0,1,0-4.56,0V6.06a.62.62,0,0,0-.23,0H3.93A3.93,3.93,0,0,0,0,10V35a3.93,3.93,0,0,0,3.93,3.93H31.79A3.93,3.93,0,0,0,35.72,35V10A3.93,3.93,0,0,0,31.79,6Zm-4.7-3.74a1,1,0,0,1,2,0V9.15a1,1,0,0,1-2,0Zm-20.51,0a1,1,0,1,1,2,0V9.15a1,1,0,0,1-2,0ZM34.33,35a2.54,2.54,0,0,1-2.54,2.54H3.93A2.54,2.54,0,0,1,1.39,35V10A2.55,2.55,0,0,1,3.93,7.4h.44V8.76a3.18,3.18,0,0,0,6.36,0V7.4H25V8.76a3.18,3.18,0,1,0,6.36,0V7.4h.44A2.55,2.55,0,0,1,34.33,10Z"/><path class="cls-1" d="M32.32,16H3.52a.69.69,0,0,0-.69.69v17A2.39,2.39,0,0,0,5.21,36.1H30.62A2.39,2.39,0,0,0,33,33.71v-17A.69.69,0,0,0,32.32,16Zm-.7,17.71a1,1,0,0,1-1,1H5.21a1,1,0,0,1-1-1V17.39h27.4Z"/></g></g></svg>