<svg xmlns="http://www.w3.org/2000/svg" viewBox="0 0 33.94 35.13"><defs><style>.cls-1{fill:#e7641a;}</style></defs><g id="Capa_2" data-name="Capa 2"><g id="Capa_1-2" data-name="Capa 1"><path class="cls-1" d="M33.87,9c-.72-4.76-3.89-9-9.1-9-2.39,0-5.42,1.66-7.27,3.05s-2.92,3.51-3.82,5.68A32.11,32.11,0,0,1,11.4,13.5a11.23,11.23,0,0,0-1.81,3.69,4.24,4.24,0,0,0,.51,3.06c-.9,1-1.78,1.94-2.69,2.88a5.47,5.47,0,0,1-2.25,1.65,10.1,10.1,0,0,1-2,.3A3.39,3.39,0,0,0,.29,26.81a2.89,2.89,0,0,0,.78,3.47,3.1,3.1,0,0,0,3,.86,5.1,5.1,0,0,0,.16,1.28,5.21,5.21,0,0,0,1,1.72,2.8,2.8,0,0,0,3.58.61,3.4,3.4,0,0,0,2.18-3c0-.54-.09-1.14-.09-1.67a4,4,0,0,1,1.12-2.75c.86-1,1.81-2,2.72-2.95a3.9,3.9,0,0,0,3.31.07A20.33,20.33,0,0,0,20.9,22.7a27.64,27.64,0,0,1,4.65-2.24C29.7,18.71,34.62,14,33.87,9ZM10,29.6c-.08.71.25,1.41.18,2.11A2.8,2.8,0,0,1,8,34.15C5,34.79,5.46,32,4.85,30.53a.45.45,0,0,0-.54-.3c-2.93.53-4.79-2.8-1.6-4.19.91-.39,2.09-.07,3.05-.44,1.92-.75,3.46-3.06,4.85-4.61a13.39,13.39,0,0,0,2.25,2.12s0,0,.05,0,0,0,0,0a10,10,0,0,0,1.06.73C12.45,25.51,10.26,27.32,10,29.6ZM32.88,11.67A14,14,0,0,1,27,18.83c-2.14,1.17-4.5,1.77-6.56,3.11a15,15,0,0,1-2.31,1.47c-1.85.78-3.25.15-4.72-1a9.1,9.1,0,0,1-2.66-2.8c-.9-1.82.05-3.57,1-5.14a48.52,48.52,0,0,0,3.06-6.33c2.43-5.5,9.61-9.56,15-5.41C32.07,4.49,33.72,8.89,32.88,11.67Z"/><path class="cls-1" d="M19.13,5.64a.44.44,0,0,0,0,.87A.44.44,0,0,0,19.13,5.64Z"/><path class="cls-1" d="M20.41,9.58a.44.44,0,0,0,0,.87A.44.44,0,0,0,20.41,9.58Z"/><path class="cls-1" d="M25.2,10.58a.44.44,0,0,0-.88,0v.08a.44.44,0,0,0,.88,0Z"/><path class="cls-1" d="M22.86,5.33a.44.44,0,0,0,0,.88A.44.44,0,0,0,22.86,5.33Z"/><path class="cls-1" d="M25.1,3.09a.44.44,0,0,0,0-.87A.44.44,0,0,0,25.1,3.09Z"/><path class="cls-1" d="M27.19,8c-.41-.39-1,.23-.62.62l0,0c.41.38,1-.23.62-.62Z"/><path class="cls-1" d="M28.19,4.89l0,0c-.39.41.23,1,.62.62l0,0C29.19,5.1,28.58,4.48,28.19,4.89Z"/><path class="cls-1" d="M30.23,9.7a.44.44,0,0,0,0-.87A.44.44,0,0,0,30.23,9.7Z"/><path class="cls-1" d="M25.55,13.89a.44.44,0,0,0,0,.88A.44.44,0,0,0,25.55,13.89Z"/><path class="cls-1" d="M29.21,12.89V13c0,.56.89.56.87,0v-.08C30.07,12.33,29.19,12.32,29.21,12.89Z"/><path class="cls-1" d="M12,16.33a5,5,0,0,0-.4,2.92c.09.56.93.32.84-.23a4,4,0,0,1,.31-2.25C13,16.27,12.25,15.82,12,16.33Z"/><path class="cls-1" d="M13.15,14.19a.44.44,0,0,0,0,.88A.44.44,0,0,0,13.15,14.19Z"/></g></g></svg>