<svg xmlns="http://www.w3.org/2000/svg" viewBox="0 0 34.32 33.4"><defs><style>.cls-1{fill:#e7641a;}</style></defs><g id="Capa_2" data-name="Capa 2"><g id="Capa_1-2" data-name="Capa 1"><path class="cls-1" d="M5.85,9.72a.24.24,0,0,0-.27-.21L5,9.58l-.29.06a.25.25,0,0,0-.19.29.26.26,0,0,0,.24.19h0s.3-.06.78-.12h0A.25.25,0,0,0,5.85,9.72Z"/><path class="cls-1" d="M28,21.26l-.29.24a.24.24,0,0,0,.15.43.23.23,0,0,0,.14,0h0l.32-.26a9.07,9.07,0,0,0,.93-.93.24.24,0,0,0,0-.34.25.25,0,0,0-.35,0,7.91,7.91,0,0,1-.56.59Q28.16,21.13,28,21.26Z"/><path class="cls-1" d="M14.75,12.79a.23.23,0,0,0,.17.07.22.22,0,0,0,.17-.07.25.25,0,0,0,0-.35c-.17-.16-.34-.32-.52-.47l-.33-.27c-.15-.13-.31-.25-.47-.37a.25.25,0,0,0-.34.06.24.24,0,0,0,.06.34q.39.29.75.6l.33.3Z"/><path class="cls-1" d="M16.62,15.46a.25.25,0,0,0,.22.14l.11,0a.25.25,0,0,0,.11-.33,10.91,10.91,0,0,0-.56-1c-.1-.16-.2-.32-.31-.47l0,0a.25.25,0,0,0-.32,0,.25.25,0,0,0-.06.34c.13.19.26.38.38.59l.33.59Z"/><path class="cls-1" d="M20.17,21.3l.11,0a.23.23,0,0,0,.17-.07.24.24,0,0,0,0-.34l-.28-.29c-.11-.11-.22-.24-.32-.36s-.32-.39-.47-.6a.25.25,0,0,0-.4.3,12.75,12.75,0,0,0,.87,1l.26.27Z"/><path class="cls-1" d="M18.27,18.64l.08,0h0a.24.24,0,0,0,.09-.33,2.1,2.1,0,0,1-.13-.26,6.25,6.25,0,0,1-.33-.63c-.1-.19-.19-.39-.28-.59a.25.25,0,0,0-.33-.13.26.26,0,0,0-.12.33c.23.51.47,1,.73,1.45a.25.25,0,0,0,0,.07A.22.22,0,0,0,18.27,18.64Z"/><path class="cls-1" d="M8.93,10H9a.23.23,0,0,0,.24-.21A.24.24,0,0,0,9,9.54l-.67-.07L8,9.45l-.72,0h0a.25.25,0,0,0,0,.49l.72,0,.32,0Z"/><path class="cls-1" d="M30,19.38a.31.31,0,0,0,.13,0l.09,0a.2.2,0,0,0,.12-.09c.15-.23.29-.47.43-.71a.25.25,0,0,0-.43-.24l-.12.21-.29.48A.25.25,0,0,0,30,19.38Z"/><path class="cls-1" d="M10.17.07a.48.48,0,0,0-.48,0L.26,5A.51.51,0,0,0,0,5.4V32.51a.49.49,0,0,0,.24.42A.43.43,0,0,0,.49,33a.54.54,0,0,0,.22,0L10.14,28a.51.51,0,0,0,.27-.44V10.25a.19.19,0,0,0,.13.1,11.67,11.67,0,0,1,1.47.54V28a.48.48,0,0,0,.26.43l9.43,4.91a.51.51,0,0,0,.48,0,.47.47,0,0,0,.24-.42V22.81a3.72,3.72,0,0,0,.64.22h.06a.25.25,0,0,0,.24-.18.24.24,0,0,0-.17-.3,4.45,4.45,0,0,1-.77-.28V5.8a.49.49,0,0,0-.27-.43L12.73.46a.51.51,0,0,0-.48,0A.49.49,0,0,0,12,.89v9.47a11.16,11.16,0,0,0-1.34-.48.24.24,0,0,0-.26.1V.49A.49.49,0,0,0,10.17.07ZM9.43,27.31l-1.11.57L8,28.05l-1.59.83-.33.17-1.53.8-.2.1-1.63.85-.18.09L1,31.71V5.7L4.26,4l.14-.07,5-2.61ZM13,1.7l1.26.66.33.17,1.59.82.33.17,1.52.8.33.17L21.44,6.1V21.94l-.06,0a.26.26,0,0,0,.06.32v9.8l-1.27-.66-.32-.17-1.51-.78L18,30.33l-1.52-.79-.33-.17-1.59-.83-.33-.17L13,27.71Z"/><path class="cls-1" d="M23.92,5.4V32.51a.5.5,0,0,0,.23.42.48.48,0,0,0,.26.07.59.59,0,0,0,.22,0L30,30.14l.11-.05,1.66-.87.29-.15,2-1a.5.5,0,0,0,.26-.44V.49a.48.48,0,0,0-.71-.43L24.18,5A.51.51,0,0,0,23.92,5.4Zm9.43,21.91L32.08,28l-.33.17L30.17,29l-.33.17-1.52.8-.33.16-1.5.79-.33.17-1.26.66V23.19a5.58,5.58,0,0,0,1.26-.28l.33-.13h0a.25.25,0,0,0,.13-.32.27.27,0,0,0-.15-.13.2.2,0,0,0-.17,0l-.16.05a4.76,4.76,0,0,1-1.26.32V5.7L26.16,5l.26-.14L28,4.08l.33-.17,1.52-.79L30.17,3l1.58-.83L32.08,2l1.27-.66Z"/></g></g></svg>