<svg xmlns="http://www.w3.org/2000/svg" xmlns:xlink="http://www.w3.org/1999/xlink" viewBox="0 0 335.24 97"><defs><style>.cls-1{fill:url(#Degradado_sin_nombre_37);}.cls-2{font-size:43px;font-family:Montserrat-Medium, Montserrat;font-weight:500;}.cls-2,.cls-6,.cls-7{fill:#fff;}.cls-3{letter-spacing:0.01em;}.cls-4{letter-spacing:-0.02em;}.cls-5{letter-spacing:0em;}.cls-7{fill-rule:evenodd;}</style><linearGradient id="Degradado_sin_nombre_37" x1="166.99" y1="163.66" x2="168.52" y2="-116.67" gradientUnits="userSpaceOnUse"><stop offset="0.22" stop-color="#00b25b"/><stop offset="0.31" stop-color="#00b75d"/><stop offset="0.41" stop-color="#00c662"/><stop offset="0.53" stop-color="#00de6a"/><stop offset="0.63" stop-color="#00fb73"/></linearGradient></defs><g id="Capa_2" data-name="Capa 2"><g id="Capa_1-2" data-name="Capa 1"><rect class="cls-1" width="335.24" height="97" rx="26.93"/><text class="cls-2" transform="translate(33.3 62.59)">Rese<tspan class="cls-3" x="105.44" y="0">r</tspan><tspan class="cls-4" x="123.71" y="0">v</tspan><tspan class="cls-5" x="147.02" y="0">as</tspan></text><path class="cls-6" d="M255.29,82l4.81-17.93a33.23,33.23,0,1,1,13.22,13.1Zm18.92-11.55,1.14.68A26.93,26.93,0,1,0,266.13,62l.7,1.14-2.69,10Z"/><path class="cls-7" d="M301.38,52.7c-1.37-.82-3.14-1.73-4.75-1.07-1.23.5-2,2.43-2.81,3.42a1.19,1.19,0,0,1-1.53.33,21.51,21.51,0,0,1-10.72-9.19,1.31,1.31,0,0,1,.17-1.79,7.19,7.19,0,0,0,1.94-3.16,6.82,6.82,0,0,0-.87-3.74c-.64-1.4-1.36-3.38-2.76-4.17a3.79,3.79,0,0,0-4.11.61,8.35,8.35,0,0,0-2.89,6.61,9.22,9.22,0,0,0,.26,2.1,17.54,17.54,0,0,0,2,4.64c.65,1.1,1.35,2.17,2.1,3.2A32.41,32.41,0,0,0,286.54,59a27.64,27.64,0,0,0,5.68,2.7c2.23.74,4.21,1.5,6.61,1.05a8,8,0,0,0,6-4.47,3.78,3.78,0,0,0,.28-2.27C304.77,54.39,302.65,53.46,301.38,52.7Z"/></g></g></svg>