<svg xmlns="http://www.w3.org/2000/svg" viewBox="0 0 38 38.07"><defs><style>.cls-1{fill:#f3a719;}</style></defs><g id="Capa_2" data-name="Capa 2"><g id="Capa_1-2" data-name="Capa 1"><path class="cls-1" d="M37.68,18.2l-14-16.09a6.13,6.13,0,0,0-9.26,0L.32,18.2a1.32,1.32,0,0,0-.2,1.41,1.31,1.31,0,0,0,1.19.77h2.4V36.76A1.31,1.31,0,0,0,5,38.07H33a1.31,1.31,0,0,0,1.31-1.31V20.38h2.4a1.31,1.31,0,0,0,1-2.18ZM16.35,3.83a3.52,3.52,0,0,1,5.31,0L33.81,17.76H4.2ZM31.67,35.45H6.34V20.38H31.67Z"/></g></g></svg>