<svg xmlns="http://www.w3.org/2000/svg" viewBox="0 0 36.43 28.62"><defs><style>.cls-1{fill:#f3a719;}</style></defs><g id="Capa_2" data-name="Capa 2"><g id="Capa_1-2" data-name="Capa 1"><path class="cls-1" d="M31.17,0H5.26A5.27,5.27,0,0,0,0,5.26v18.1a5.27,5.27,0,0,0,5.26,5.26H31.17a5.27,5.27,0,0,0,5.26-5.26V5.26A5.27,5.27,0,0,0,31.17,0Zm0,2.51a2.51,2.51,0,0,1,.62.08L20.86,15a3.52,3.52,0,0,1-5.29,0L4.63,2.59a2.65,2.65,0,0,1,.63-.08Zm2.75,20.85a2.75,2.75,0,0,1-2.75,2.74H5.26a2.75,2.75,0,0,1-2.75-2.74V5.26a2.76,2.76,0,0,1,.21-1l11,12.43a6,6,0,0,0,9.07,0l11-12.43a2.76,2.76,0,0,1,.21,1Z"/></g></g></svg>