<svg xmlns="http://www.w3.org/2000/svg" viewBox="0 0 41 36.92"><defs><style>.cls-1{fill:none;stroke:#f4a81a;stroke-miterlimit:10;stroke-width:2px;fill-rule:evenodd;}</style></defs><g id="Capa_2" data-name="Capa 2"><g id="Capa_1-2" data-name="Capa 1"><path class="cls-1" d="M35.38,24.07c-1.65-.95-3.8-2-5.75-1.25-1.5.59-2.45,2.85-3.42,4a1.47,1.47,0,0,1-1.85.39,25.82,25.82,0,0,1-13-10.74,1.5,1.5,0,0,1,.2-2.1c.93-1.06,2.11-2.26,2.36-3.69A7.85,7.85,0,0,0,12.85,6.3c-.78-1.63-1.66-3.95-3.35-4.87a4.74,4.74,0,0,0-5,.72A9.6,9.6,0,0,0,1,9.88a10.62,10.62,0,0,0,.32,2.45,19.71,19.71,0,0,0,2.44,5.42,41.08,41.08,0,0,0,2.55,3.74,38.8,38.8,0,0,0,11.06,9.89,33.92,33.92,0,0,0,6.9,3.16c2.7.86,5.11,1.76,8,1.22s6.07-2.38,7.28-5.21a4.4,4.4,0,0,0,.34-2.67C39.5,26.05,36.92,25,35.38,24.07Z"/></g></g></svg>