<svg xmlns="http://www.w3.org/2000/svg" viewBox="0 0 31.11 40.01"><defs><style>.cls-1{fill:#f3a719;}</style></defs><g id="Capa_2" data-name="Capa 2"><g id="Capa_1-2" data-name="Capa 1"><path class="cls-1" d="M15.55,40h0a1.4,1.4,0,0,1-1-.45C13.94,38.92,0,23.83,0,15.55a15.56,15.56,0,0,1,31.11,0c0,8.28-13.95,23.37-14.54,24A1.36,1.36,0,0,1,15.55,40Zm0-37.23A12.79,12.79,0,0,0,2.78,15.55c0,5.49,8.44,16.12,12.77,21,4.33-4.88,12.77-15.51,12.77-21A12.79,12.79,0,0,0,15.55,2.78Z"/><path class="cls-1" d="M15.55,21.87a7,7,0,1,1,7-7A7,7,0,0,1,15.55,21.87Zm0-11.22a4.22,4.22,0,1,0,4.22,4.22A4.23,4.23,0,0,0,15.55,10.65Z"/></g></g></svg>