<svg xmlns="http://www.w3.org/2000/svg" viewBox="0 0 56.03 56.03"><g id="Capa_2" data-name="Capa 2"><g id="Capa_1-2" data-name="Capa 1"><path class="cls-1" d="M46.53,7A28.07,28.07,0,0,0,21,.89c-.72.19-1.45.42-2.24.69h0a28,28,0,0,0-6.91,3.58c-.55.4-1.1.81-1.61,1.23a28,28,0,0,0,4.47,46.26c.43.24.92.48,1.48.75A27.84,27.84,0,0,0,28,56a28.27,28.27,0,0,0,8.08-1.19l.15,0a1.12,1.12,0,0,0,.31,0q.63-.2,1.23-.42a28.08,28.08,0,0,0,11.57-8c.33-.38.65-.77.94-1.15a1.09,1.09,0,0,0,.21-.51A28,28,0,0,0,48.1,8.5C47.6,8,47.07,7.48,46.53,7ZM28,2.09a25.86,25.86,0,0,1,17,6.4,3.41,3.41,0,0,1-1-.08c-.67-.18-1.31-.38-2-.59-2.89-.88-5.61-1.71-8.81-.71A18.69,18.69,0,0,0,31.05,8L31,8a10.26,10.26,0,0,1-2.22.82,3.51,3.51,0,0,1-.72.07,4.58,4.58,0,0,1-2.66-1A8.84,8.84,0,0,1,23.11,5.1a12.39,12.39,0,0,0-1.6-2.18A25.86,25.86,0,0,1,28,2.09ZM15.82,50.89l-.15-.08A25.91,25.91,0,0,1,11.54,8c.39-.32.79-.63,1.21-.94,1.53.06,2,.12,2.38,2.38a7.21,7.21,0,0,1,0,1.67,5.71,5.71,0,0,0,.14,2.42,4,4,0,0,0,1.06,1.54,2.49,2.49,0,0,1,.91,1.52c.13,2.06-2.11,2.63-5.06,3.15l-.78.14a11.66,11.66,0,0,0-2.05.54A4.16,4.16,0,0,0,6.61,23c-.58,1.91.72,4,1.91,5.4A10.06,10.06,0,0,1,10.82,36a12.89,12.89,0,0,1-.5,1.68c-.61,1.78-1.31,3.79.83,5.57a10.56,10.56,0,0,0,2,1.28,9,9,0,0,1,.94.53,3.3,3.3,0,0,1,1.41,2.1A9.91,9.91,0,0,1,15.82,50.89Zm32-5.89a26,26,0,0,1-10.71,7.43l-.4.14c-2.07-2.92-5.62-6.41-9.53-7.51a4.72,4.72,0,0,1-3-2.12c-.25-.32-.54-.68-.9-1.09a9.3,9.3,0,0,0-3.63-2.39L18.68,39a4.32,4.32,0,0,1-2.58-5.12c.69-3.59,4.19-4.83,7.2-4.83h.54a16.09,16.09,0,0,1,2.17.29c1.85.33,3.44.61,5.53-1.31a6.55,6.55,0,0,0,2-4.21,10.18,10.18,0,0,1,.62-2.44,5.56,5.56,0,0,1,1.48-2.05,1.61,1.61,0,0,1,1.4-.26,2.36,2.36,0,0,0,1.28-.06,4.41,4.41,0,0,0,1.88-1.68A3.41,3.41,0,0,1,43,15.61c1.87-.09,5.38,1,6.42,2.85A2.22,2.22,0,0,1,49.14,21a8.8,8.8,0,0,1-1.52,1.62h0a5.51,5.51,0,0,0-2.19,3.6,3.44,3.44,0,0,0,1.15,3.39,4.66,4.66,0,0,1,1.12,1.63,5.05,5.05,0,0,1-.39,3.39,6.84,6.84,0,0,0-.55,3.45c.06.32.09.71.13,1.12a42,42,0,0,0,1.41,5.18Zm2-2.92C49.32,40.52,49,39.28,49,39c0-.44-.08-.89-.15-1.3a5.36,5.36,0,0,1,.47-2.41,6.85,6.85,0,0,0,.37-4.8,6.44,6.44,0,0,0-1.57-2.33c-.58-.62-.72-.76-.59-1.65A3.45,3.45,0,0,1,49,24.16h0l.37-.33.54-.53a6.11,6.11,0,0,0,.47-.53,6.12,6.12,0,0,0,.47-.61,4.28,4.28,0,0,0,.35-4.71,6.34,6.34,0,0,0-2.17-2.17,11.59,11.59,0,0,0-6.3-1.82A5.43,5.43,0,0,0,38.37,16a2.9,2.9,0,0,1-.91,1l-.26,0a3.63,3.63,0,0,0-2.94.64,7.38,7.38,0,0,0-2.18,2.92,12.57,12.57,0,0,0-.76,2.91,4.52,4.52,0,0,1-1.31,3c-1.33,1.22-2,1.09-3.75.78a18.38,18.38,0,0,0-2.43-.31c-3.95-.2-8.92,1.39-9.9,6.51A6.32,6.32,0,0,0,16.7,40.3a9.26,9.26,0,0,0,1.08.62l1,.45a12.36,12.36,0,0,1,1.86,1,5.54,5.54,0,0,1,.94.83c.32.37.58.71.82,1a7.58,7.58,0,0,0,2,2,7.36,7.36,0,0,0,2.15.93,11,11,0,0,1,3,1.42,20.9,20.9,0,0,1,4.87,4.64,26,26,0,0,1-6.41.8A25.73,25.73,0,0,1,17.8,51.84c0-.22.07-.44.1-.65v0c0-.22,0-.45.05-.67a1.93,1.93,0,0,0,0-.24c0-.16,0-.32,0-.48s0-.18,0-.27,0-.3,0-.45l0-.28c0-.15,0-.3-.05-.45s0-.18,0-.28-.05-.32-.08-.48,0-.16,0-.24c-.05-.25-.11-.49-.18-.73a5.67,5.67,0,0,0-3.39-3.94,8.89,8.89,0,0,1-1.63-1c-.93-.78-.86-1.35-.19-3.29a15.86,15.86,0,0,0,.57-1.95A12,12,0,0,0,10.12,27c-1.18-1.39-1.74-2.68-1.51-3.44a.87.87,0,0,1,.07-.17,1.57,1.57,0,0,1,.4-.47,3.28,3.28,0,0,1,.73-.45l.3-.13h0a14.19,14.19,0,0,1,2.41-.56c2.64-.47,7.05-1.25,6.79-5.35a4.44,4.44,0,0,0-1.49-2.83,2.59,2.59,0,0,1-.59-.75,4.12,4.12,0,0,1,0-1.59,8.38,8.38,0,0,0,0-2.18c0-.24-.08-.46-.13-.67,0-.06,0-.13,0-.19s-.07-.27-.11-.4l-.06-.2q-.06-.18-.12-.33a1.34,1.34,0,0,1-.07-.18l-.15-.31a.75.75,0,0,1-.07-.12c-.08-.14-.16-.26-.24-.38a.1.1,0,0,1,0,0c-.08-.09-.15-.18-.23-.26l-.1-.09-.21-.18-.12-.08a1.64,1.64,0,0,0-.22-.14l-.07,0a26.41,26.41,0,0,1,3.73-1.76l.15.06c1,.33,1.53,1.25,2.26,2.43A10.88,10.88,0,0,0,24.19,9.6,6.67,6.67,0,0,0,28.06,11a9.09,9.09,0,0,0,3.8-1.07l-.43-1,.48.93a17.91,17.91,0,0,1,1.9-.76c2.59-.81,4.79-.14,7.58.71.72.22,1.38.42,2.08.61a3,3,0,0,0,.43.09l.15,0,.3,0h.92l.2,0,.27,0,.21,0,.27,0,.2,0,.28,0,.21,0H47a25.92,25.92,0,0,1,2.8,31.73Z"/><path class="cls-1" d="M41.78,31.57a5.47,5.47,0,0,0-5.56,1.79,5.51,5.51,0,0,0-5.6-1.81A4.37,4.37,0,0,0,27.32,36c0,4.84,8.16,10.62,8.51,10.86l.4.28.4-.28c.35-.24,8.51-6,8.51-10.86A4.36,4.36,0,0,0,41.78,31.57ZM36.23,45.4c-2.42-1.78-7.52-6.2-7.52-9.43A3,3,0,0,1,31,32.89a3.93,3.93,0,0,1,1-.12,4.19,4.19,0,0,1,3.66,2.15L36.24,36l.6-1.09a4.15,4.15,0,0,1,4.59-2,3,3,0,0,1,2.32,3C43.75,39.2,38.65,43.62,36.23,45.4Z"/></g></g></svg>