<svg xmlns="http://www.w3.org/2000/svg" xmlns:xlink="http://www.w3.org/1999/xlink" viewBox="0 0 107.3 112.84"><defs><style>.cls-1{isolation:isolate;}.cls-2{opacity:0.8;mix-blend-mode:multiply;fill:url(#radial-gradient);}.cls-3{fill:#e7641a;}.cls-4{fill:#fff;}</style><radialGradient id="radial-gradient" cx="53.65" cy="59.19" r="53.65" gradientUnits="userSpaceOnUse"><stop offset="0" stop-color="#000057"/><stop offset="0.39" stop-color="#7575a4" stop-opacity="0.54"/><stop offset="0.79" stop-color="#d9d9e6" stop-opacity="0.15"/><stop offset="1" stop-color="#fff" stop-opacity="0"/></radialGradient></defs><g class="cls-1"><g id="Capa_2" data-name="Capa 2"><g id="Capa_1-2" data-name="Capa 1"><circle class="cls-2" cx="53.65" cy="59.19" r="53.65"/><circle class="cls-3" cx="39.21" cy="37.36" r="37.36"/><path class="cls-4" d="M50.81,23.22a2.57,2.57,0,1,0,2.56,2.57A2.57,2.57,0,0,0,50.81,23.22Z"/><path class="cls-4" d="M39.39,26.52A10.79,10.79,0,1,0,50.18,37.3,10.8,10.8,0,0,0,39.39,26.52Zm0,17.69A6.91,6.91,0,1,1,46.3,37.3,6.92,6.92,0,0,1,39.39,44.21Z"/><path class="cls-4" d="M48,59.2H30.47A13.17,13.17,0,0,1,17.31,46.05V28.56A13.17,13.17,0,0,1,30.47,15.4H48A13.17,13.17,0,0,1,61.11,28.56V46.05A13.17,13.17,0,0,1,48,59.2ZM30.47,19.52a9,9,0,0,0-9,9V46.05a9,9,0,0,0,9,9H48a9,9,0,0,0,9-9V28.56a9,9,0,0,0-9-9Z"/></g></g></g></svg>