<svg xmlns="http://www.w3.org/2000/svg" viewBox="0 0 70.32 68.44"><g id="Capa_2" data-name="Capa 2"><g id="Capa_1-2" data-name="Capa 1"><path class="cls-1" d="M12,19.92a.49.49,0,0,0-.56-.44c-.45.05-.81.1-1.09.15l-.6.11a.52.52,0,0,0-.39.6.51.51,0,0,0,.49.39h.11s.6-.13,1.6-.25h.05A.5.5,0,0,0,12,19.92Z"/><path class="cls-1" d="M57.35,43.56l-.59.48a.51.51,0,0,0-.09.71.53.53,0,0,0,.4.19.51.51,0,0,0,.28-.09l0,0c.22-.16.43-.34.65-.52a19.25,19.25,0,0,0,1.91-1.92.5.5,0,0,0-.75-.66c-.38.44-.77.84-1.16,1.22Z"/><path class="cls-1" d="M30.22,26.2a.48.48,0,0,0,.7,0,.5.5,0,0,0,0-.71c-.34-.34-.69-.65-1.06-1-.21-.19-.44-.37-.66-.55s-.64-.52-1-.75a.5.5,0,1,0-.57.82,18.17,18.17,0,0,1,1.55,1.23c.22.2.45.4.66.61Z"/><path class="cls-1" d="M34.06,31.68a.48.48,0,0,0,.45.28.44.44,0,0,0,.22-.05.5.5,0,0,0,.23-.67c-.36-.72-.75-1.4-1.16-2.07-.21-.32-.41-.65-.62-1,0,0,0,0,0-.05a.49.49,0,0,0-.77.62c.27.39.52.79.77,1.21s.45.79.67,1.21C33.88,31.36,34,31.51,34.06,31.68Z"/><path class="cls-1" d="M41.33,43.64a.54.54,0,0,0,.22,0,.49.49,0,0,0,.35-.15.5.5,0,0,0,0-.71c-.2-.18-.38-.38-.57-.58s-.45-.49-.67-.75-.65-.79-1-1.21a.5.5,0,1,0-.81.6A23.47,23.47,0,0,0,40.66,43l.53.55A.67.67,0,0,0,41.33,43.64Z"/><path class="cls-1" d="M37.43,38.2a.58.58,0,0,0,.16-.05s.06,0,.09,0a.49.49,0,0,0,.18-.68l-.27-.52c-.23-.42-.46-.85-.67-1.3s-.39-.8-.58-1.22a.5.5,0,0,0-.92.41c.47,1,1,2,1.5,3,0,.05,0,.1.07.14A.51.51,0,0,0,37.43,38.2Z"/><path class="cls-1" d="M18.29,20.53h.07a.49.49,0,0,0,.49-.44.5.5,0,0,0-.43-.56c-.45-.06-.91-.1-1.37-.14l-.66,0c-.49,0-1-.05-1.47-.05h0a.49.49,0,0,0-.5.49.5.5,0,0,0,.5.51q.74,0,1.47.06l.66.05C17.47,20.44,17.89,20.48,18.29,20.53Z"/><path class="cls-1" d="M61.37,39.7a.53.53,0,0,0,.27.08.75.75,0,0,0,.16,0,.55.55,0,0,0,.26-.19c.3-.47.6-1,.88-1.46a.51.51,0,0,0-.19-.68.49.49,0,0,0-.68.19L61.8,38c-.19.33-.38.66-.58,1A.5.5,0,0,0,61.37,39.7Z"/><path class="cls-1" d="M20.84.15a1,1,0,0,0-1,0L.54,10.17a1,1,0,0,0-.54.89V66.61a1,1,0,0,0,.48.86,1.07,1.07,0,0,0,.52.14.92.92,0,0,0,.46-.11L20.78,57.44a1,1,0,0,0,.54-.89V21a.47.47,0,0,0,.27.21,21.24,21.24,0,0,1,3,1.1V57.38a1,1,0,0,0,.54.89L44.46,68.33a1.12,1.12,0,0,0,.47.11,1,1,0,0,0,1-1V46.74a10.26,10.26,0,0,0,1.32.45l.13,0a.5.5,0,0,0,.48-.37.49.49,0,0,0-.35-.61,10.75,10.75,0,0,1-1.58-.58V11.89a1,1,0,0,0-.54-.89L26.07.94a1,1,0,0,0-1.46.89v19.4a21.22,21.22,0,0,0-2.74-1,.49.49,0,0,0-.55.2V1A1,1,0,0,0,20.84.15ZM19.32,56l-2.27,1.17-.66.35-3.26,1.7-.67.34L9.32,61.15l-.41.21L5.57,63.1l-.36.19L2,65V11.67L8.74,8.16,9,8l10.3-5.37ZM26.61,3.48l2.6,1.35.66.35,3.26,1.69.67.35,3.12,1.63.67.34,6.33,3.3V44.94a.63.63,0,0,0-.11.12.51.51,0,0,0,.11.64V65.79l-2.59-1.36-.67-.34-3.07-1.61-.67-.34L33.8,60.51l-.67-.35-3.26-1.69-.66-.35-2.6-1.35Z"/><path class="cls-1" d="M49,11.06V66.61a1,1,0,0,0,.49.86,1.07,1.07,0,0,0,.52.14.92.92,0,0,0,.46-.11l11-5.75.22-.11,3.41-1.77.6-.31,4.06-2.12a1,1,0,0,0,.53-.89V1a1,1,0,0,0-.48-.85,1,1,0,0,0-1,0L49.55,10.17A1,1,0,0,0,49,11.06ZM68.32,56,65.73,57.3l-.67.34-3.26,1.7-.66.35L58,61.31l-.67.35-3.08,1.6-.67.35L51,65V47.51a10.76,10.76,0,0,0,2.59-.58l.67-.25,0,0a.5.5,0,0,0,.27-.66.52.52,0,0,0-.31-.27.47.47,0,0,0-.35,0l-.32.12A9.63,9.63,0,0,1,51,46.5V11.67l2.59-1.35.53-.28,3.22-1.67L58,8l3.12-1.63.66-.34,3.26-1.7L65.73,4l2.59-1.36Z"/></g></g></svg>