<svg xmlns="http://www.w3.org/2000/svg" viewBox="0 0 52.75 64.39"><g id="Capa_2" data-name="Capa 2"><g id="Capa_1-2" data-name="Capa 1"><path class="cls-1" d="M17,48.25h6.1a.85.85,0,0,0,.81-.61c.22-1.41.5-2.8.84-4.19A.84.84,0,0,0,24,42.39H18.17a.86.86,0,0,0-.81.61c-.43,1.39-.82,2.78-1.16,4.2-.25,1,1.36,1.49,1.62.44.34-1.41.72-2.81,1.15-4.19l-.8.61H24L23.15,43c-.34,1.39-.62,2.79-.85,4.2l.81-.62H17A.84.84,0,0,0,17,48.25Z"/><path class="cls-1" d="M23.78,33.58c-1,.09-2-.37-3.05-.37s-1.47,0-2.25.93a.85.85,0,0,0-.13,1c.29.44,1.86,2.4,1.74,2.67a.85.85,0,0,0,.72,1.26H24.4a.83.83,0,0,0,.72-.42q1.08-2.14,2.34-4.19a.84.84,0,0,0-.72-1.26,9.68,9.68,0,0,0-3.18.4A.83.83,0,0,0,24,35.22a3.6,3.6,0,0,1,1.41-.34h1.33L26,33.63a47.64,47.64,0,0,0-2.34,4.19l.72-.42H20.81l.72,1.26c.7-1.58-.9-3.08-1.74-4.35,0,.33-.09.67-.13,1,.43-.53-.19-.37.5-.44a6.63,6.63,0,0,1,1.26,0,8.34,8.34,0,0,0,2.36.37C24.84,35.15,24.85,33.48,23.78,33.58Z"/><path class="cls-1" d="M15.79,57.53h6.92a.85.85,0,0,0,.84-.83c-.05-1.4-.05-2.8,0-4.19a.85.85,0,0,0-.84-.84H16.33a.86.86,0,0,0-.81.61c-.22,1.47-.41,2.94-.56,4.42-.11,1.07,1.56,1.06,1.67,0,.14-1.33.3-2.65.5-4l-.8.61h6.39l-.83-.83c-.06,1.39-.06,2.79,0,4.19l.83-.84H15.79A.84.84,0,0,0,15.79,57.53Z"/><path class="cls-1" d="M1,7.29c1,0,2,.06,2.9.13l.09,0H4l.7.06L3.29,8.6a1,1,0,0,0,.61,1.79,1,1,0,0,0,.62-.21L7.45,7.91a26.9,26.9,0,0,1,2.64.63L6.77,10.46a1,1,0,0,0,1,1.74l4.82-2.79c.58.24,1.13.49,1.66.76L8.6,13.84a1,1,0,0,0,1.09,1.68l6.53-4.24c.6.39,1.17.79,1.7,1.21L9.33,17.17a1,1,0,0,0,1,1.76l9.25-5c.37.36.72.72,1,1.09a1,1,0,0,0,.34.38l.3.37L14.53,19a1,1,0,0,0-.46,1.34,1,1,0,0,0,.9.56,1,1,0,0,0,.44-.1l7-3.45.29.46a.14.14,0,0,1,0,.06,6,6,0,0,0-4.86,3.4l-.2-.15a1,1,0,0,0-1.41.2,1,1,0,0,0,.2,1.4l.83.63c0,.17,0,.34,0,.52a5.5,5.5,0,0,0,.08.91l-4.6-3.29a1,1,0,0,0-1.4.23,1,1,0,0,0,.23,1.4L18,27.74c-.44.33-.88.69-1.31,1.07l-5.62-3.6A1,1,0,0,0,10,26.9l5.23,3.35-.51.57-.08,0a1,1,0,0,0-.44.41l-4.52-2a1,1,0,1,0-.82,1.83L13.1,33c-.36.54-.7,1.12-1,1.72l-3-1.24a1,1,0,0,0-.76,1.86l2.88,1.18c-.2.46-.4.93-.59,1.43l-2.69-.39a1,1,0,0,0-1.14.85,1,1,0,0,0,.86,1.14l2.32.33c-.15.49-.29,1-.42,1.51l-2.4.32a1,1,0,0,0,.13,2h.14l1.7-.22c-.08.43-.16.86-.23,1.3a1,1,0,0,0,.85,1.14h.15a1,1,0,0,0,1-.86c.13-.85.29-1.66.46-2.45a.87.87,0,0,0,.05-.22c0-.11.05-.23.08-.34l.67,1.18a1,1,0,0,0,1.74-1l-1.64-2.85c.24-.7.5-1.36.77-2l1.21,3a1,1,0,0,0,.93.62,1.06,1.06,0,0,0,.38-.07,1.27,1.27,0,0,0,.27-.18,86.26,86.26,0,0,0-3.1,22,1.67,1.67,0,0,0,1.67,1.67H24.4a1.71,1.71,0,0,0,1.27-.58,1.64,1.64,0,0,0,.38-1.34,55.24,55.24,0,0,1,3.38-28.09,6,6,0,0,0,2-.83,1,1,0,0,0,.69.59.9.9,0,0,0,.23,0,1,1,0,0,0,1-.77l1.05-4.46a5.74,5.74,0,0,0,1.22-.52l.39.25-2.22,7.91a1,1,0,0,0,.69,1.24l.27,0a1,1,0,0,0,1-.73l2-7.19c.31.25.61.52.9.8l-2.09,5.7a1,1,0,1,0,1.88.69l1.73-4.73c.21.26.4.53.6.8l-1.29,4.15a1,1,0,0,0,.67,1.25,1,1,0,0,0,.29.05,1,1,0,0,0,1-.71l.76-2.47c.25.45.48.93.7,1.41l-1.22,2.62a1,1,0,0,0,.49,1.33,1,1,0,0,0,.42.09,1,1,0,0,0,.91-.58l.39-.84a.73.73,0,0,0,.08.25c.21.68.41,1.38.58,2.1a1,1,0,0,0,1,.77,1,1,0,0,0,.24,0,1,1,0,0,0,.74-1.21c-.08-.34-.17-.67-.26-1l1.38.06h0a1,1,0,0,0,0-2l-2.08-.09c-.13-.39-.27-.76-.42-1.12L47,36.77a1,1,0,0,0-.45-2l-2.28.53-.54-1.05,2.37-1.22a1,1,0,0,0-.92-1.78l-2.5,1.29c-.3-.45-.6-.88-.92-1.27l3.5-1.95a1,1,0,1,0-1-1.75l-3.77,2.09a1.07,1.07,0,0,0-.41-.28l-.06,0-.38-.36L44,25.75a1,1,0,1,0-1.22-1.58L38.1,27.74c-.31-.23-.61-.44-.93-.64a4.77,4.77,0,0,0,.45-.58l4.65-4a1,1,0,0,0,.11-1.41A1,1,0,0,0,41,21l-2.32,2a6,6,0,0,0-7-5.79c.08-.18.17-.36.26-.55a.89.89,0,0,0,.23-.44l.22-.4,6.78,2.75a1,1,0,0,0,.38.08,1,1,0,0,0,.37-1.94L33.46,14.1c.07-.1.14-.21.22-.31a1,1,0,0,0,.29-.38c.27-.35.56-.71.88-1.06l9,4.1a1,1,0,0,0,.41.09,1,1,0,0,0,.42-1.91l-8.32-3.79c.45-.4.93-.79,1.43-1.17l6.39,3.53a1,1,0,0,0,.49.13,1,1,0,0,0,.88-.52,1,1,0,0,0-.4-1.36l-5.47-3c.44-.26.9-.51,1.39-.75L45.76,10a1,1,0,0,0,.43.1,1,1,0,0,0,.44-1.9L43.5,6.62q1.08-.39,2.28-.72l2.89,1.94a1,1,0,0,0,.56.16,1,1,0,0,0,.83-.44,1,1,0,0,0-.27-1.39l-1.3-.87c1-.18,2.16-.32,3.34-.42a1,1,0,1,0-.16-2c-.5,0-1,.09-1.45.15l.36-1.84a1,1,0,1,0-2-.39l-.51,2.53c-.58.1-1.15.22-1.7.35l-.19-2.53a1,1,0,0,0-2,.15l.21,2.9c-.56.17-1.1.35-1.62.55L41.75,1.59A1,1,0,0,0,40.49,1a1,1,0,0,0-.64,1.27L41,5.53c-.69.32-1.36.65-2,1L37.28,1.9a1,1,0,0,0-1.88.69l1.82,4.93a1,1,0,0,0-.48.43.42.42,0,0,0,0,.1c-.24.18-.47.35-.69.54L32.83,2.81a1,1,0,1,0-1.76,1L34.47,10c-.46.45-.89.91-1.29,1.37L28.77,4.22a1,1,0,0,0-1.38-.33,1,1,0,0,0-.47.73l-.17-.11a1,1,0,0,0-1.35.42l-4.17,7.93c-.49-.49-1-1-1.57-1.44l3.16-6.84A1,1,0,1,0,21,3.74l-3,6.42-.85-.57-.05-.1a1,1,0,0,0-.56-.41l1.57-5.41a1,1,0,1,0-1.93-.56L14.74,8.22c-.71-.35-1.47-.67-2.27-1l.93-3.63a1,1,0,0,0-1.94-.5l-.89,3.49c-.6-.18-1.22-.34-1.87-.49V3a1,1,0,0,0-1-1h0a1,1,0,0,0-1,1V5.74c-.63-.1-1.28-.18-1.94-.25L4,2.81a1,1,0,1,0-1.93.53l.55,2L1,5.28H1a1,1,0,0,0,0,2ZM30.05,16.1c-.28.57-.51,1.11-.71,1.62l-.25-.4.21-.38A1,1,0,0,0,28,15.56l-.49-.79a1,1,0,0,0-.88-.47l1-1.86ZM25.69,34.75c-.46,1.27-.92,2.67-1.35,4.19-.37,1.34-.73,2.77-1,4.29-.28,1.33-.51,2.73-.7,4.19-.21,1.63-.36,3.33-.43,5.09-.06,1.36-.06,2.76,0,4.19s.15,2.87.32,4.35H16c0-1,.11-2.56.26-4.35.11-1.27.26-2.68.46-4.19s.47-3.33.82-5.09c.27-1.38.59-2.79,1-4.19s.81-2.89,1.31-4.29c.1-.28.2-.57.31-.84l.29.76s0,0,0,.08a1,1,0,0,0,.9.57,1.07,1.07,0,0,0,.35-.06,1.06,1.06,0,0,0,.55-.51,1,1,0,0,0,0-.79l-1-2.73.33-.67c.24-.48.49-.94.74-1.4l.37,1.12a1.47,1.47,0,0,0,.14.28,1,1,0,0,0,.81.41.89.89,0,0,0,.32,0,1,1,0,0,0,.49-.36,1,1,0,0,0,.15-.9l-.21-.61a6.56,6.56,0,0,0,1.5.86C25.85,34.31,25.77,34.53,25.69,34.75ZM23.31,21.2a2.68,2.68,0,0,1,2.5,1.73,6.07,6.07,0,0,0-3.33,3.5,2.68,2.68,0,0,1,.83-5.23Zm-3.48,7.6a5.84,5.84,0,0,0,1.06.61c-.41.59-.81,1.21-1.18,1.84L19,29.4C19.28,29.19,19.55,29,19.83,28.8Zm-2.43,2,1.05,2.8c-.24.5-.48,1-.7,1.54L16.28,32C16.65,31.58,17,31.17,17.4,30.8Zm10.74.38a2.69,2.69,0,1,1,2.69-2.68A2.68,2.68,0,0,1,28.14,31.18Zm7.17-8a2.69,2.69,0,0,1-1.84,2.54A6.06,6.06,0,0,0,30,22.75a2.69,2.69,0,0,1,5.34.41ZM25.8,15.81v0l1,1.57-.62,1.18a7.25,7.25,0,0,0-1-.44c-.11-.18-.21-.37-.32-.57ZM16,39.56,14.17,35c.24-.42.49-.81.74-1.19l1.82,3.9c-.23.65-.46,1.32-.67,2ZM27.17,5.86a1,1,0,0,0,.09-.27L31.87,13c-.26.37-.5.73-.73,1.09L28,9.31a1,1,0,0,0-1.68,1.1l.09.13-2.84,5.13c-.28-.41-.59-.81-.92-1.22Z"/></g></g></svg>