<svg xmlns="http://www.w3.org/2000/svg" viewBox="0 0 51.45 66.98"><g id="Capa_2" data-name="Capa 2"><g id="Capa_1-2" data-name="Capa 1"><path class="cls-1" d="M7.28,66.18A1.67,1.67,0,0,0,8.7,67H38.54a1.67,1.67,0,0,0,1.37-.73L47.8,54.72a1.67,1.67,0,0,0-1.38-2.61H19.17V48.8H49.78A1.68,1.68,0,0,0,51.45,47a76.61,76.61,0,0,0-4.39-18.46C42.28,15.74,34.66,6.85,25,2.79a1.64,1.64,0,0,0-1-.33H19.17V1.67a1.67,1.67,0,0,0-3.34,0V52.11H1.67A1.68,1.68,0,0,0,.21,53a1.7,1.7,0,0,0,0,1.69Zm18.33-27V6.73c10.62,5.42,16.32,16.69,19.33,26,.75,2.32,1.33,4.51,1.78,6.46.61,2.65,1,4.86,1.18,6.29H25.61ZM19.17,5.81h3.1V45.46h-3.1ZM43.25,55.45l-5.6,8.19h-28l-5-8.19Z"/></g></g></svg>