<svg xmlns="http://www.w3.org/2000/svg" xmlns:xlink="http://www.w3.org/1999/xlink" viewBox="0 0 109.86 114.17"><defs><style>.cls-1{isolation:isolate;}.cls-2{opacity:0.8;mix-blend-mode:multiply;fill:url(#radial-gradient);}.cls-3{fill:#f3a719;}.cls-4{fill:#fff;}</style><radialGradient id="radial-gradient" cx="54.93" cy="59.24" r="54.93" gradientUnits="userSpaceOnUse"><stop offset="0" stop-color="#000057"/><stop offset="0.39" stop-color="#7575a4" stop-opacity="0.54"/><stop offset="0.79" stop-color="#d9d9e6" stop-opacity="0.15"/><stop offset="1" stop-color="#fff" stop-opacity="0"/></radialGradient></defs><g class="cls-1"><g id="Capa_2" data-name="Capa 2"><g id="Capa_1-2" data-name="Capa 1"><circle class="cls-2" cx="54.93" cy="59.24" r="54.93"/><path class="cls-3" d="M78.9,37.36a37.36,37.36,0,1,0-43.2,36.9V48.15H26.22V37.36H35.7V29.13c0-9.37,5.58-14.54,14.11-14.54a57.54,57.54,0,0,1,8.37.73v9.19H53.46c-4.64,0-6.08,2.88-6.08,5.84v7H57.74L56.08,48.15h-8.7V74.26A37.37,37.37,0,0,0,78.9,37.36Z"/><path class="cls-4" d="M56.08,48.15l1.66-10.79H47.38v-7c0-3,1.44-5.84,6.08-5.84h4.72V15.32a57.54,57.54,0,0,0-8.37-.73c-8.53,0-14.11,5.17-14.11,14.54v8.23H26.22V48.15H35.7V74.26a38.12,38.12,0,0,0,11.68,0V48.15Z"/></g></g></g></svg>