<svg xmlns="http://www.w3.org/2000/svg" xmlns:xlink="http://www.w3.org/1999/xlink" viewBox="0 0 556.87 551.92"><defs><style>.cls-1{fill:url(#Degradado_sin_nombre_47);}.cls-2{fill:white;}.cls-3{fill:url(#Degradado_sin_nombre_47-2);}.cls-4{fill:url(#Degradado_sin_nombre_47-3);}.cls-5{fill:url(#Degradado_sin_nombre_47-4);}.cls-6{fill:url(#Degradado_sin_nombre_47-5);}.cls-7{fill:url(#Degradado_sin_nombre_47-6);}.cls-8{fill:url(#Degradado_sin_nombre_47-7);}.cls-9{fill:url(#Degradado_sin_nombre_47-8);}</style><linearGradient id="Degradado_sin_nombre_47" x1="5.91" y1="541.46" x2="513.4" y2="40.72" gradientUnits="userSpaceOnUse"><stop offset="0" stop-color="#c85b25"/><stop offset="0.37" stop-color="#ca6426"/><stop offset="1" stop-color="#dfa430"/></linearGradient><linearGradient id="Degradado_sin_nombre_47-2" x1="1.79" y1="537.28" x2="509.28" y2="36.54" xlink:href="#Degradado_sin_nombre_47"/><linearGradient id="Degradado_sin_nombre_47-3" x1="169.5" y1="616" x2="618.34" y2="173.14" xlink:href="#Degradado_sin_nombre_47"/><linearGradient id="Degradado_sin_nombre_47-4" x1="-50.26" y1="356.7" x2="372.1" y2="-60.05" xlink:href="#Degradado_sin_nombre_47"/><linearGradient id="Degradado_sin_nombre_47-5" x1="2.06" y1="537.56" x2="509.55" y2="36.82" xlink:href="#Degradado_sin_nombre_47"/><linearGradient id="Degradado_sin_nombre_47-6" x1="82.44" y1="619.03" x2="589.93" y2="118.28" xlink:href="#Degradado_sin_nombre_47"/><linearGradient id="Degradado_sin_nombre_47-7" x1="-73.97" y1="460.51" x2="433.52" y2="-40.24" xlink:href="#Degradado_sin_nombre_47"/><linearGradient id="Degradado_sin_nombre_47-8" x1="17.94" y1="549.36" x2="525.44" y2="48.62" xlink:href="#Degradado_sin_nombre_47"/></defs><g id="Capa_2" data-name="Capa 2"><g id="Capa_1-2" data-name="Capa 1"><path class="cls-1" d="M54.83,480,2.61,546.08,68,493.41Q61.15,487,54.83,480Z"/><path class="cls-2" d="M275.65,517.73A240.7,240.7,0,0,1,122.94,463.3q-5-4.08-9.76-8.41a239.35,239.35,0,0,1-20-20.51q-5.07-5.85-9.75-12A241.5,241.5,0,0,1,155.2,67C64.07,105,0,194.88,0,299.78A251,251,0,0,0,42.14,439.36q6.55,9.84,14,19,4.54,5.61,9.39,11c4.2,4.63,8.59,9.09,13.12,13.4q4.14,3.93,8.46,7.67,8.52,7.39,17.72,14a251,251,0,0,0,147.32,47.51C357,551.92,447,487.85,485,396.72A241.36,241.36,0,0,1,275.65,517.73Z"/><path class="cls-2" d="M90,117.7l-2.43-2.11L81,120.3l-.43-.43c2-2.17,3.76-4.83,6.2-6.36,2.81-1.76,4-4.51,6.2-6.86L66.06,89.1c2.14-1.87,4-3.68,6.13-5.27a3.76,3.76,0,0,1,2.47-.2c8.59,1.16,17.21,2.12,25.73,3.65,6.33,1.13,11.08-.76,15.53-5.24,16.85-16.92,33.88-33.64,50.87-50.41,4.05-4,8-8.11,12.44-11.69a33.52,33.52,0,0,1,10.33-6.09c4.2-1.36,8.83-1.6,13.3-1.89,3.13-.2,5,2.31,3.67,5.23a38.48,38.48,0,0,1-6.16,10.29c-6.47,7.16-13.41,13.9-20.21,20.77-4.91,5-9.9,9.84-14.92,14.82.33.45.54.81.82,1.12,2.11,2.27,2.23,3,.14,5.39-3.34,3.92-7.76,6.39-12.26,8.72-.51.26-1.17.47-1.44.9C149.56,84,145,86.81,140.12,89c-7.27,3.32-13.36,8.49-20.33,12.27C109.79,106.73,99.84,112.26,90,117.7Z"/><path class="cls-3" d="M400.19,49.36a242.6,242.6,0,0,1,97.36,93.25l11.11-9L524.88,28.48,406.27,41.67Z"/><path class="cls-4" d="M556.87,232l-29.14-4.21a215.68,215.68,0,0,1,1.75,67.69Z"/><path class="cls-5" d="M320.37,26.42,317.94,0,249.67,25.33a202.42,202.42,0,0,1,70.7,1.09Z"/><path class="cls-6" d="M366.2,89l-265,335.27a230.23,230.23,0,0,0,22,22.6L458,177A239.67,239.67,0,0,0,366.2,89Z"/><path class="cls-7" d="M491.46,298.85a238.45,238.45,0,0,0-11-71.74l-37.88-5.48L133.36,455.42a229.25,229.25,0,0,0,32.36,21.51l323.58-146A241,241,0,0,0,491.46,298.85Z"/><path class="cls-8" d="M324.75,71.43A239.94,239.94,0,0,0,211.85,64L70.28,377.12a228.63,228.63,0,0,0,21.08,34.72l236-311.68Z"/><path class="cls-9" d="M518.26,270.78c-.1-2.9-.36-5.8-.55-8.71a239.92,239.92,0,0,0-15.24-68.16,249.82,249.82,0,0,0-34.12-61.2l-5.44-6.91c-1.8-2.31-3.83-4.44-5.73-6.67-3.77-4.49-7.94-8.62-12-12.82a247.62,247.62,0,0,0-26.72-22.78,245,245,0,0,0-29.59-18.78c-5.24-2.59-10.33-5.46-15.74-7.68l-8-3.47-8.18-3.06C335.06,42.47,312,38.08,289.18,36.35c-22.93-1.5-46-.31-68.17,4.51a324.19,324.19,0,0,1,67,4.86c5.48,1,10.93,2.05,16.33,3.3s10.71,2.84,16,4.28c2.67.67,5.23,1.73,7.86,2.52s5.25,1.66,7.82,2.63l7.68,3,3.82,1.5,3.76,1.67,7.51,3.32,7.32,3.72c4.94,2.33,9.59,5.23,14.36,7.87A257.59,257.59,0,0,1,407.4,98.05a252.72,252.72,0,0,1,45.66,46.3c1.73,2.09,3.22,4.36,4.82,6.56s3.22,4.38,4.66,6.68c2.9,4.59,5.92,9.11,8.53,13.88a251.24,251.24,0,0,1,31.65,92.17c1.7,10.84,2.12,21.82,2.49,32.83a252.76,252.76,0,0,1-2,33.06,259.9,259.9,0,0,1-16.14,65.05A178.75,178.75,0,0,0,502.35,364a244.72,244.72,0,0,0,10.14-32.88c.64-2.81,1.3-5.63,1.82-8.46l1.38-8.55c.23-1.43.49-2.85.68-4.29l.46-4.31.92-8.65.44-8.68.18-4.36c0-1.45,0-2.9,0-4.35Z"/></g></g></svg>