<svg xmlns="http://www.w3.org/2000/svg" viewBox="0 0 202.61 202.61"><defs><style>.cls-1{fill:#f3a719;}</style></defs><g id="Capa_2" data-name="Capa 2"><g id="text"><path class="cls-1" d="M110,202.61H90.62a1,1,0,0,0,.12-.16s.07-.13.06-.14c-.87-.61-1.9-.4-2.86-.55q-50.91-7.86-76-52.83A95.35,95.35,0,0,1,.72,113.59c0-.41.45-1.38-.72-1.2V90.23a2.26,2.26,0,0,0,.29.23s.12-.07.13-.13A12,12,0,0,0,.75,89c4.52-32.67,20.93-57.61,49-74.85A96.68,96.68,0,0,1,89,.72c.41,0,1.38.45,1.21-.72h22.16a1.68,1.68,0,0,0-.24.29s.08.12.13.13c1.34.24,2.69.49,4,.7,25.84,4,47.07,16.23,63.62,36.39a98.58,98.58,0,0,1,22,52c.05.41-.23,1.19.69,1.11V112l-.15-.12a.43.43,0,0,0-.15-.06c-.73,1.38-.56,2.94-.79,4.42q-6.14,39-36.7,63.93a98.57,98.57,0,0,1-51.53,21.75c-.44.05-1.33-.36-1.3.7h-1.58c.09-.21,0-.35-.2-.35S109.92,202.4,110,202.61Zm16.62-68.46h0c0-6.06.06-12.13,0-18.19,0-1.69.53-2.08,2.13-2.07,7.45.08,14.9,0,22.35,0a13.48,13.48,0,0,0,5.23-.87,5.39,5.39,0,0,0,3.37-6.73,14.34,14.34,0,0,0-2.91-5.56q-22.49-28.62-45-57.21c-6-7.52-14.9-7.49-20.86,0Q68.36,72.09,46,100.65a14.91,14.91,0,0,0-3,5.53,5.42,5.42,0,0,0,3.39,6.89,13.29,13.29,0,0,0,5.23.86c7.45,0,14.9,0,22.35,0,1.68,0,2.09.5,2.08,2.12C76,127.74,76,139.48,76,151.22c0,7.88,5.44,13.33,13.28,13.35s16,0,23.94,0,13.41-5.42,13.43-13.42C126.65,145.49,126.63,139.82,126.63,134.15Z"/></g></g></svg>