<svg xmlns="http://www.w3.org/2000/svg" viewBox="0 0 419.41 323.58"><defs><style>.cls-1{fill:none;stroke:#f3a719;stroke-miterlimit:10;stroke-width:3px;}.cls-2{fill:#f3a719;}</style></defs><g id="Capa_2" data-name="Capa 2"><g id="Capa_1-2" data-name="Capa 1"><path class="cls-1" d="M1.5,222.35a44.31,44.31,0,0,0,44.26,44.26h209l-3.35,42.67a11.87,11.87,0,0,0,20.8,8.71l44.67-51.38h56.81a44.32,44.32,0,0,0,44.26-44.26V45.78A44.32,44.32,0,0,0,373.65,1.5H45.76A44.31,44.31,0,0,0,1.5,45.78Z"/><path class="cls-2" d="M58.33,282.05a11,11,0,0,0,7.81,18.85h0a11,11,0,1,0-7.81-18.85Zm15.93,7.81A8.13,8.13,0,0,1,66.14,298h0a8.12,8.12,0,0,1-5.74-13.86,8,8,0,0,1,5.74-2.38A8.13,8.13,0,0,1,74.26,289.86Z"/><path class="cls-2" d="M74.51,301.3a1.45,1.45,0,0,0-1.87-.08c-.07,0-6.55,4.92-12.58,0a1.48,1.48,0,0,0-1.89,0c-.24.21-5.88,5.23-6,15.07a1.45,1.45,0,0,0,1.46,1.48H78.67a1.47,1.47,0,0,0,1.46-1.42C80.14,316,80.38,306.67,74.51,301.3ZM55.14,314.89A18.45,18.45,0,0,1,59.3,304.3c5.27,3.5,10.93,1.84,14,0,3,3.36,3.67,8.24,3.82,10.62Z"/></g></g></svg>