<svg xmlns="http://www.w3.org/2000/svg" viewBox="0 0 76.71 57.73"><defs><style>.cls-1{fill:#2ba0c3;}</style></defs><g id="Capa_2" data-name="Capa 2"><g id="Capa_1-2" data-name="Capa 1"><path class="cls-1" d="M65.57,1.71H46.75a6.68,6.68,0,0,0-4.42,1.68V0H3.23V34.33A5.11,5.11,0,0,0,0,39.08v4.21A5.11,5.11,0,0,0,5.11,48.4H9.55s0,.08,0,.12a9.21,9.21,0,0,0,18.42,0V48.4H52s0,.08,0,.12a9.22,9.22,0,1,0,18.34-1.18,11.13,11.13,0,0,0,6.42-10.07V12.85A11.16,11.16,0,0,0,65.57,1.71Zm-60,.58H40V34H5.52ZM18.75,55.44a6.92,6.92,0,1,1,6.92-6.92A6.92,6.92,0,0,1,18.75,55.44Zm42.41,0a6.92,6.92,0,1,1,6.93-6.92A6.93,6.93,0,0,1,61.16,55.44ZM74.42,37.27a8.86,8.86,0,0,1-4.72,7.81,9.2,9.2,0,0,0-17.42,1H27.63a9.2,9.2,0,0,0-17.76,0H5.11a2.82,2.82,0,0,1-2.82-2.82V39.08a2.83,2.83,0,0,1,2.82-2.83H42.33V8.42A4.42,4.42,0,0,1,46.75,4H65.57a8.86,8.86,0,0,1,8.85,8.85Z"/><path class="cls-1" d="M18.75,44.08a4.44,4.44,0,1,0,4.44,4.44A4.44,4.44,0,0,0,18.75,44.08Zm0,6.59a2.15,2.15,0,1,1,2.15-2.15A2.15,2.15,0,0,1,18.75,50.67Z"/><path class="cls-1" d="M61.16,44.08a4.44,4.44,0,1,0,4.45,4.44A4.45,4.45,0,0,0,61.16,44.08Zm0,6.59a2.15,2.15,0,1,1,2.16-2.15A2.15,2.15,0,0,1,61.16,50.67Z"/><path class="cls-1" d="M25.58,9.49H18.51v5.88H12.64v7.07h5.87v5.87h7.07V22.44h5.88V15.37H25.58Zm3.59,8.17v2.49H23.29V26H20.8V20.15H14.93V17.66H20.8V11.78h2.49v5.88h5.88Z"/><path class="cls-1" d="M64.37,11.26H59v-.07H46.17V27.48h18.2a6,6,0,0,0,6-6V17.26A6,6,0,0,0,64.37,11.26Zm3.72,10.22a3.72,3.72,0,0,1-3.72,3.71H48.46V13.48h8.26v.07h7.65a3.72,3.72,0,0,1,3.72,3.71Z"/></g></g></svg>