<svg xmlns="http://www.w3.org/2000/svg" viewBox="0 0 70.18 54.01"><defs><style>.cls-1{fill:#2ba0c3;}</style></defs><g id="Capa_2" data-name="Capa 2"><g id="Capa_1-2" data-name="Capa 1"><path class="cls-1" d="M9.31,18.5h29a.87.87,0,0,0,0-1.73h-29a.87.87,0,0,0,0,1.73Z"/><path class="cls-1" d="M38.35,40.55h-29a.86.86,0,0,0,0,1.72h29a.86.86,0,0,0,0-1.72Z"/><path class="cls-1" d="M68.61,2l-.06-.06A5.12,5.12,0,0,0,64.87.24a5.59,5.59,0,0,0-3.63,1.55L50,13a.9.9,0,0,0-.25.61.78.78,0,0,0,0,.22l-.67.67-.3-.3-1.18,1.18V0H0V54H47.66V30.14l8.57-8.56-.31-.31.67-.67a.93.93,0,0,0,.22,0,.85.85,0,0,0,.61-.26l11-11a5.91,5.91,0,0,0,1.71-3.78A5,5,0,0,0,68.61,2ZM45.94,31.87V52.29H1.72V1.72H45.94V17.09l-9.63,9.62.69.7-.23,1.34H9.31a.87.87,0,0,0,0,1.73H36.47l-.73,4.22L43,33.44l.66.66,2.24-2.23L46.8,31Zm-8,2-1.6.3-.11,0,.3-1.73.37.37.81-4.66,4.54,4.54-4.66.81Zm5.72-2.18-5-5L48.84,16.63l4.95,4.95ZM55,21l-5.56-5.56.57-.58,5.56,5.57ZM67.27,8.1,56.81,18.55l-5-5L62.46,3h0a3.88,3.88,0,0,1,2.41-1,3.47,3.47,0,0,1,2.43,1.16l0,0a3.31,3.31,0,0,1,1.09,2.35A4.13,4.13,0,0,1,67.27,8.1Z"/><path class="cls-1" d="M50,10.78a.75.75,0,0,0,1.07,0l8-7.95a.77.77,0,0,0,0-1.07h0a.75.75,0,0,0-1.07,0L50,9.7a.75.75,0,0,0,0,1.07Z"/></g></g></svg>