<svg xmlns="http://www.w3.org/2000/svg" viewBox="0 0 63.33 68.69"><defs><style>.cls-1{fill:#2ba0c3;}</style></defs><g id="Capa_2" data-name="Capa 2"><g id="Capa_1-2" data-name="Capa 1"><path class="cls-1" d="M17.13,50.2a20.36,20.36,0,0,0,40.64-1.87V37.7a8.68,8.68,0,1,0-6.56-.11V48.33a13.8,13.8,0,0,1-27.47,1.83c10-1.63,16.91-10.39,16.91-22V3.28A3.28,3.28,0,0,0,37.37,0a3.25,3.25,0,0,0-2,.68A4.26,4.26,0,0,0,33.26.12a4.31,4.31,0,0,0,0,8.61,4.49,4.49,0,0,0,.83-.08V28.14c0,9.27-5.66,15.74-13.76,15.74S6.56,37.41,6.56,28.14V8.71l.38,0A4.31,4.31,0,1,0,5.08.54,3.28,3.28,0,0,0,0,3.28V28.14C0,39.86,7,48.67,17.13,50.2ZM2,3.28a1.31,1.31,0,0,1,2.62,0V28.14c0,10.43,6.47,17.7,15.74,17.7s15.73-7.27,15.73-17.7V3.28a1.31,1.31,0,0,1,2.62,0V28.14c0,11.78-7.72,20.33-18.35,20.33S2,39.92,2,28.14ZM8.62,4.42A1.68,1.68,0,0,1,6.94,6.1a1.58,1.58,0,0,1-.38,0V3.28a2.61,2.61,0,0,0,0-.48,2,2,0,0,1,.43-.06A1.69,1.69,0,0,1,8.62,4.42Zm23,0a1.68,1.68,0,0,1,1.68-1.68,1.66,1.66,0,0,1,.86.24c0,.1,0,.2,0,.3v2.6a1.68,1.68,0,0,1-2.51-1.46ZM53.17,48.33V29.56a1.32,1.32,0,0,1,2.63,0V48.33A18.39,18.39,0,0,1,19.13,50.4c.4,0,.79,0,1.2,0s1,0,1.45-.06a15.76,15.76,0,0,0,31.39-2.05Zm1.46-25.46a6.73,6.73,0,0,1,3.14,12.68v-6a3.28,3.28,0,0,0-6.56,0v5.82a6.72,6.72,0,0,1,3.42-12.51Z"/></g></g></svg>