<svg xmlns="http://www.w3.org/2000/svg" viewBox="0 0 53 53.38"><defs></defs><g id="Capa_2" data-name="Capa 2"><g id="Capa_19" data-name="Capa 19"><path  d="M53,12v.65q0,15.06,0,30.12a.77.77,0,0,1-.58.85Q40.26,48.36,28.1,53.17c-.17.07-.35.12-.58.2V22.57c0-.36,0-.6.44-.77Q40.17,17,52.38,12.17Z"/><path  d="M25.46,53.38l-2.5-1L.53,43.56c-.35-.14-.53-.28-.53-.71q0-15.2,0-30.4V12c.2.06.35.1.5.16,2.8,1.1,5.59,2.21,8.39,3.3a.6.6,0,0,1,.45.66c0,2.21,0,4.43,0,6.64v.67a2.07,2.07,0,0,0,.4-.05.48.48,0,0,1,.7.25.56.56,0,0,0,.73.32.89.89,0,0,1,.66.25c.27.25.48.49.92.31.14,0,.42.17.58.32a4.11,4.11,0,0,1,.48.62l.16-.11V17.5a3.45,3.45,0,0,1,.46.13C18,19,21.5,20.42,25,21.8a.58.58,0,0,1,.45.65q0,15.23,0,30.46C25.48,53,25.47,53.17,25.46,53.38Z"/><path  d="M52.36,10c-.83.34-1.52.62-2.22.89L27,20a1.4,1.4,0,0,1-.9.05q-4.85-1.87-9.66-3.79a2.09,2.09,0,0,1-.33-.17L19,14.92l22.33-9a1.21,1.21,0,0,1,1,0C45.6,7.23,48.91,8.58,52.36,10Z"/><path  d="M36.13,3.38l-2.37.93-23.3,9.05a1.63,1.63,0,0,1-1.3,0c-2.6-1.06-5.23-2.08-7.84-3.12l-.4-.17L4.51,8.64,26.06.1A1.15,1.15,0,0,1,26.81,0C29.87,1.12,32.92,2.22,36.13,3.38Z"/></g></g></svg>