<svg xmlns="http://www.w3.org/2000/svg" viewBox="0 0 78.09 88.71"><defs><style>.cls-1{fill:#fff;}</style></defs><g id="Capa_2" data-name="Capa 2"><g id="Capa_1-2" data-name="Capa 1"><path class="cls-1" d="M47.55,54.39,75.23,68.78a2,2,0,0,0,2.51-2.84l-6.47-9.42a3.69,3.69,0,0,0,.44-.67l1.38-2.65a4.12,4.12,0,0,0,.27-3.12A4.07,4.07,0,0,0,66.11,49l-2.88-4.2,1.13-2.18a4.09,4.09,0,0,0-4.86-5.78,4.2,4.2,0,0,0-1.27.68l-.86-1.24C64.86,20.79,69.76,3.22,64.28.37S46.37,11.46,37.91,26.59l-2.14,0a4,4,0,0,0-.14-1.75,4.09,4.09,0,0,0-7.53-.65L26.81,26.7l-5.06.06a4.08,4.08,0,0,0-7.31-3.62l-1.37,2.65a3.8,3.8,0,0,0-.36,1.06L1.93,27a2,2,0,0,0-.88,3.69L28.75,45a75.88,75.88,0,0,0-4.31,16.82c-.27,1.65-.54,3.22-.83,4.64L9.1,71.08a2,2,0,0,0,.7,3.82c.13,0,13.87-.56,25,13.09a1.94,1.94,0,0,0,1.52.72,1.91,1.91,0,0,0,.92-.24,1.94,1.94,0,0,0,.94-2.3L33.56,71.7c.5-.56,1-1.14,1.6-1.75A108.11,108.11,0,0,0,47.55,54.39ZM18.34,72.26l7.52-2.37a2,2,0,0,0,1.31-1.41c.43-1.81.77-3.83,1.13-6C29.19,57.22,30.2,51.21,33,45a2,2,0,0,0-.88-2.54L9.79,30.79l4.22,0a4.37,4.37,0,0,0,.8.55,4,4,0,0,0,4.62-.61l7.3-.08a4.08,4.08,0,0,0,4.86,2,4.06,4.06,0,0,0,2.39-2l.05-.08,5.06-.06a1.92,1.92,0,0,0,1.69-1c9.27-17,19.13-25.4,21.66-25.57,1.05,1.94,0,13.44-9.08,31.7a1.94,1.94,0,0,0,.15,2l2.43,3.55-.21.4A4.09,4.09,0,0,0,57.47,47a4,4,0,0,0,1.88.46,4.51,4.51,0,0,0,.9-.1L64.12,53a4.06,4.06,0,0,0,2.08,4.58,4.4,4.4,0,0,0,1.36.43l2.54,3.69L47.73,50.08a2,2,0,0,0-2.59.75c-4,6.86-8.93,12.19-12.86,16.48-.86.93-1.66,1.8-2.38,2.62a2,2,0,0,0-.41,1.89L32,79.57A37.44,37.44,0,0,0,18.34,72.26Zm-2.5-45,1.37-2.65a1,1,0,0,1,.86-.51.87.87,0,0,1,.44.11,1,1,0,0,1,.41,1.29l-1.38,2.65h0a.94.94,0,0,1-.56.47,1,1,0,0,1-.73-.06.92.92,0,0,1-.47-.57A.93.93,0,0,1,15.84,27.23Zm15-1.58a1,1,0,0,1,.85-.52,1,1,0,0,1,.44.11.92.92,0,0,1,.47.57.93.93,0,0,1-.06.73l-1.37,2.64a1,1,0,0,1-1.3.41,1,1,0,0,1-.41-1.29ZM60.44,39.84a1,1,0,0,1,.29-.05,1,1,0,0,1,.92.67,1,1,0,0,1-.06.73l-1.38,2.65a1,1,0,1,1-1.7-.89h0l1.37-2.64A.93.93,0,0,1,60.44,39.84Zm6.79,13.68,1.38-2.65a1,1,0,0,1,.56-.47,1,1,0,0,1,1.21.63,1,1,0,0,1-.07.73l-1.37,2.65a1,1,0,0,1-.56.47,1,1,0,0,1-.74-.06,1,1,0,0,1-.47-.57A.93.93,0,0,1,67.23,53.52Z"/></g></g></svg>