<svg xmlns="http://www.w3.org/2000/svg" viewBox="0 0 32.11 20.9"><g id="Capa_2" data-name="Capa 2"><g id="Capa_1-2" data-name="Capa 1"><path d="M26.46,2.3V2.18h-.57c-.2-.51-.95-1.12-4.08-1.61A59.71,59.71,0,0,0,13,0a59.81,59.81,0,0,0-8.8.57C1.05,1.06.32,1.69.12,2.2H0V2.9A16.8,16.8,0,0,0,4.65,14.76c-2.34.63-3.52,1.5-3.52,2.59,0,2.8,7.92,3.55,12.1,3.55s12.11-.75,12.11-3.55c0-1.09-1.19-2-3.54-2.59.17-.16.32-.32.46-.48a15.18,15.18,0,0,0,2.33.2,8,8,0,0,0,5.28-1.66,6.61,6.61,0,0,0,2.24-5.26C32.11,4.17,29.1,2.62,26.46,2.3Zm-.15,2.94A2.68,2.68,0,0,1,28.6,7.78a3.74,3.74,0,0,1-1.23,3,4.85,4.85,0,0,1-3.22.94A17.22,17.22,0,0,0,26.31,5.24ZM13,1.3c6.17,0,10.42.7,11.48,1.27C23.43,3.14,19.18,3.84,13,3.84S2.59,3.14,1.53,2.57C2.59,2,6.84,1.3,13,1.3ZM24,17.35c0,.79-4.1,2.24-10.8,2.24s-10.8-1.45-10.8-2.24c0-.32.91-1,3.4-1.54a11.56,11.56,0,0,0,14.8,0C23.13,16.36,24,17,24,17.35Zm-10.8-.16C7,17.19,1.77,11.36,1.34,3.88a13.86,13.86,0,0,0,2.87.69,59.81,59.81,0,0,0,8.8.57,59.71,59.71,0,0,0,8.8-.57,10.92,10.92,0,0,0,3.33-.9C24.81,11.28,19.62,17.19,13.23,17.19ZM29,11.82c-1.32,1.1-3.32,1.54-5.79,1.28l.1-.15c.35,0,.64.05.91.05l.59,0a5.75,5.75,0,0,0,3.37-1.23A4.7,4.7,0,0,0,29.79,9a6.5,6.5,0,0,0,.11-1.19c0-2.67-2.32-3.57-3.47-3.86,0-.1,0-.19,0-.29a8.34,8.34,0,0,1,1.93.53,3.54,3.54,0,0,1,2.42,3.4A5.32,5.32,0,0,1,29,11.82Z"/></g></g></svg>