<svg xmlns="http://www.w3.org/2000/svg" viewBox="0 0 45.98 52.24"><g id="Capa_2" data-name="Capa 2"><g id="Capa_1-2" data-name="Capa 1"><path class="cls-1" d="M28,32,44.3,40.5a1.15,1.15,0,0,0,1.48-1.67L42,33.28a2,2,0,0,0,.26-.39L43,31.33a2.39,2.39,0,0,0-1-3.24,2.39,2.39,0,0,0-3.08.77l-1.7-2.47.67-1.28a2.4,2.4,0,0,0,.16-1.84,2.37,2.37,0,0,0-1.19-1.41A2.43,2.43,0,0,0,35,21.7a2.46,2.46,0,0,0-.75.4l-.5-.73C38.2,12.24,41.08,1.9,37.85.22S27.31,6.75,22.32,15.66H21.07a2.41,2.41,0,0,0-.09-1,2.37,2.37,0,0,0-1.19-1.41,2.4,2.4,0,0,0-3.24,1l-.76,1.47-3,0a2.41,2.41,0,0,0-1.06-3.16,2.41,2.41,0,0,0-3.25,1l-.81,1.56a2.83,2.83,0,0,0-.21.62l-6.34.07a1.15,1.15,0,0,0-.52,2.17l16.31,8.47a44.29,44.29,0,0,0-2.53,9.91c-.17,1-.32,1.9-.5,2.73l-8.54,2.7a1.14,1.14,0,0,0-.78,1.3,1.16,1.16,0,0,0,1.19,1c.08,0,8.17-.33,14.69,7.7a1.16,1.16,0,0,0,.9.43,1.06,1.06,0,0,0,.54-.14,1.14,1.14,0,0,0,.55-1.36l-2.69-8.52.94-1A62,62,0,0,0,28,32ZM10.8,42.55l4.43-1.39a1.19,1.19,0,0,0,.77-.83c.25-1.07.45-2.26.66-3.52a39.84,39.84,0,0,1,2.8-10.34A1.15,1.15,0,0,0,18.94,25L5.77,18.13l2.48,0a3,3,0,0,0,.47.32,2.42,2.42,0,0,0,1.11.27,2.31,2.31,0,0,0,.73-.11,2.45,2.45,0,0,0,.88-.52l4.3,0a2.38,2.38,0,0,0,1,1,2.35,2.35,0,0,0,1.1.27,2.27,2.27,0,0,0,.73-.11A2.37,2.37,0,0,0,20,18L20,18l3,0a1.13,1.13,0,0,0,1-.6c5.45-10,11.26-15,12.75-15.06.62,1.15,0,7.91-5.34,18.67a1.13,1.13,0,0,0,.08,1.16l1.43,2.09-.12.24a2.4,2.4,0,0,0,1,3.24A2.29,2.29,0,0,0,35,28a2.33,2.33,0,0,0,.53-.06l2.28,3.32a2.42,2.42,0,0,0,0,1.28A2.38,2.38,0,0,0,39,33.91a2.28,2.28,0,0,0,.8.26l1.49,2.17L28.11,29.49a1.14,1.14,0,0,0-1.52.44A58.23,58.23,0,0,1,19,39.64c-.51.54-1,1.06-1.4,1.54a1.15,1.15,0,0,0-.24,1.11l1.44,4.57A22.13,22.13,0,0,0,10.8,42.55ZM9.33,16l.81-1.56a.56.56,0,0,1,.5-.31.48.48,0,0,1,.26.07.56.56,0,0,1,.24.76l-.81,1.56h0a.61.61,0,0,1-.33.28.58.58,0,0,1-.43,0,.57.57,0,0,1-.28-.33A.53.53,0,0,1,9.33,16Zm8.85-.93a.56.56,0,0,1,.51-.31.54.54,0,0,1,.26.07.53.53,0,0,1,.27.33.54.54,0,0,1,0,.43l-.81,1.56a.55.55,0,0,1-.33.27.53.53,0,0,1-.43,0,.58.58,0,0,1-.25-.77Zm17.41,8.35a.57.57,0,0,1,.18,0,.51.51,0,0,1,.26.07.53.53,0,0,1,.27.33.54.54,0,0,1,0,.43l-.81,1.56a.57.57,0,0,1-1-.52h0l.81-1.56A.54.54,0,0,1,35.59,23.46Zm4,8.06L40.4,30a.57.57,0,0,1,.77-.24.55.55,0,0,1,.27.33.54.54,0,0,1,0,.43L40.6,32a.57.57,0,0,1-.77.24.55.55,0,0,1-.27-.33A.54.54,0,0,1,39.59,31.52Z"/></g></g></svg>