<svg xmlns="http://www.w3.org/2000/svg" viewBox="0 0 58.29 57.19"><g id="Capa_2" data-name="Capa 2"><g id="Capa_1-2" data-name="Capa 1"><path class="cls-1" d="M35.73,0H21.9a8.23,8.23,0,0,0-8.22,8.22v4.27A15,15,0,0,0,0,27.46v14.7a15.05,15.05,0,0,0,15,15H43.26a15,15,0,0,0,7.27-1.88l.1-.06a15,15,0,0,0,7.66-13.09V27.46a15.05,15.05,0,0,0-14.35-15V8.22A8.22,8.22,0,0,0,35.73,0ZM55,42.16a11.65,11.65,0,0,1-3.59,8.41V19A11.66,11.66,0,0,1,55,27.46ZM3.34,27.46a11.65,11.65,0,0,1,3.78-8.59V50.74a11.64,11.64,0,0,1-3.78-8.58ZM35.73,3.34A4.88,4.88,0,0,1,40.6,8.22v4.2H37V10.07a4.85,4.85,0,0,0-4.85-4.85H25.46a4.85,4.85,0,0,0-4.85,4.85v2.35H17V8.22A4.89,4.89,0,0,1,21.9,3.34ZM48,16.8A1.64,1.64,0,0,0,48,17v35.8a11.76,11.76,0,0,1-4.24,1v-38A11.67,11.67,0,0,1,48,16.8ZM18,53.85V15.76H40.44V53.85Zm-7.57-.93V17a1.73,1.73,0,0,0,0-.32,11.81,11.81,0,0,1,4.26-.93V53.83A11.73,11.73,0,0,1,10.46,52.92Zm23.22-40.5H24V10.07a1.51,1.51,0,0,1,1.51-1.51h6.71a1.52,1.52,0,0,1,1.51,1.51Z"/></g></g></svg>