<svg xmlns="http://www.w3.org/2000/svg" viewBox="0 0 168.62 182.91"><g id="Capa_2" data-name="Capa 2"><g id="Capa_1-2" data-name="Capa 1"><path d="M45.62,133.66a54.21,54.21,0,0,0,108.2-5V100.38a23.13,23.13,0,1,0-17.47-.29v28.6a36.73,36.73,0,0,1-73.13,4.87c26.57-4.34,45-27.65,45-58.62V8.74a8.69,8.69,0,0,0-14-6.92A11.33,11.33,0,0,0,88.56.31,11.47,11.47,0,1,0,90.77,23V74.94c0,24.66-15.07,41.89-36.65,41.89S17.47,99.6,17.47,74.94V23.19c.33,0,.66.06,1,.06a11.47,11.47,0,1,0,0-22.94,11.24,11.24,0,0,0-4.94,1.14A8.72,8.72,0,0,0,0,8.74v66.2C0,106.14,18.73,129.58,45.62,133.66ZM5.24,8.74a3.5,3.5,0,1,1,7,0v66.2c0,27.75,17.23,47.13,41.89,47.13S96,102.69,96,74.94V8.74a3.5,3.5,0,1,1,7,0v66.2c0,31.36-20.56,54.12-48.88,54.12S5.24,106.3,5.24,74.94Zm17.71,3a4.49,4.49,0,0,1-4.48,4.48,4.22,4.22,0,0,1-1-.13V8.74a9,9,0,0,0-.13-1.28,4.28,4.28,0,0,1,1.13-.16A4.49,4.49,0,0,1,23,11.78Zm61.14,0A4.45,4.45,0,0,1,90.85,8a6.82,6.82,0,0,0-.08.79v6.91a4.44,4.44,0,0,1-6.68-3.87Zm57.5,116.91v-50a3.5,3.5,0,0,1,7,0v50A49,49,0,0,1,51,134.21c1,0,2.1.09,3.17.09,1.31,0,2.59-.06,3.86-.15a42,42,0,0,0,83.61-5.46Zm3.87-67.79a17.91,17.91,0,0,1,8.36,33.75v-16a8.74,8.74,0,1,0-17.47,0V94.2a17.89,17.89,0,0,1,9.11-33.3Z"/></g></g></svg>