<svg xmlns="http://www.w3.org/2000/svg" viewBox="0 0 26.8 29.5"><g id="Capa_2" data-name="Capa 2"><g id="Capa_1-2"><path d="M10.42,17.06v8.69c-3.73.08-5.62.71-5.62,1.87S7,29.5,11.24,29.5s6.44-.64,6.44-1.88-1.89-1.79-5.63-1.87V17.44l6.66-6.66a5.66,5.66,0,1,0-3.23-5.29H.82A.83.83,0,0,0,.06,6a.83.83,0,0,0,.18.89ZM21.13,1.63a4,4,0,1,1,0,8.07A4.14,4.14,0,0,1,20,9.53l2.65-2.65A.81.81,0,0,0,22,5.49H17.11A4,4,0,0,1,21.13,1.63ZM20.07,7.12l-8.64,8.64L2.78,7.12ZM11.24,27.87a22,22,0,0,1-3.52-.25,22.18,22.18,0,0,1,3.52-.24,22.33,22.33,0,0,1,3.53.24A22.12,22.12,0,0,1,11.24,27.87Z"/></g></g></svg>