<svg xmlns="http://www.w3.org/2000/svg" viewBox="0 0 34 34.64"><g id="Capa_2" data-name="Capa 2"><g id="Capa_1-2" data-name="Capa 1"><path   d="M17.78,17.69c2-.39,3.21.63,5.08,2.17a26.44,26.44,0,0,0,3.48,2.54c2.79,1.64,4.43,3.65,4.4,5.38a2.29,2.29,0,0,1-1.3,2,2.52,2.52,0,0,1-.68.26,7.66,7.66,0,0,1-3.44-.41,10,10,0,0,0-4.79-.42l-.12,0-.12,0a10.1,10.1,0,0,0-4.1,2.46,7.72,7.72,0,0,1-2.91,1.86,2.66,2.66,0,0,1-.74.07,2.35,2.35,0,0,1-2.06-1.28c-.78-1.54-.17-4.07,1.63-6.75a26.66,26.66,0,0,0,2-3.81c1-2.2,1.69-3.65,3.64-4.16m-.22-.93c-3.61.93-3.67,4.52-6.25,8.37-3.77,5.64-2,9.37,1.19,9.51a4.06,4.06,0,0,0,1-.09c2.52-.59,4.21-3.67,7-4.32l.11,0h.13c2.82-.66,5.7,1.41,8.24.83a3.17,3.17,0,0,0,.91-.35c2.77-1.49,2.79-5.64-3.06-9.08-4-2.34-5.61-5.55-9.27-4.82Z"/><path   d="M2.5,15h0c1.44-.34,3.42.37,5.05,1.79a7.43,7.43,0,0,1,2.31,3.4,2.73,2.73,0,0,1-.31,2.51,1.94,1.94,0,0,1-1.07.61c-1.44.33-3.43-.37-5.05-1.79a7.4,7.4,0,0,1-2.31-3.4,2.75,2.75,0,0,1,.3-2.51A2,2,0,0,1,2.5,15m-.21-.93A2.9,2.9,0,0,0,.71,15c-1.49,1.7-.55,4.95,2.09,7.26,1.92,1.67,4.21,2.39,5.89,2a3,3,0,0,0,1.58-.91c1.49-1.71.55-5-2.09-7.26-1.92-1.67-4.21-2.39-5.89-2Z"/><path   d="M30.35,8.63a2,2,0,0,1,1.25.08c1.57.67,1.92,3.51.77,6.2-.85,2-2.32,3.47-3.76,3.8a2,2,0,0,1-1.25-.08c-1.56-.67-1.91-3.5-.76-6.19a6.3,6.3,0,0,1,3.75-3.81m-.21-.93c-1.68.39-3.42,2-4.42,4.36-1.38,3.22-.81,6.56,1.27,7.45a3,3,0,0,0,1.84.13c1.67-.39,3.42-2,4.41-4.36,1.38-3.22.82-6.56-1.26-7.44a3,3,0,0,0-1.84-.14Z"/><path   d="M8.52,3.63h0c1.68-.39,3.89,1.4,5,4.07A7.81,7.81,0,0,1,14.16,12a2.93,2.93,0,0,1-1.47,2.28l-.32.1c-1.68.39-3.89-1.4-5-4.08A7.79,7.79,0,0,1,6.73,6,2.91,2.91,0,0,1,8.21,3.73a1.12,1.12,0,0,1,.31-.1M8.3,2.7a2.14,2.14,0,0,0-.47.15C5.64,3.78,5,7.29,6.47,10.7c1.35,3.16,4,5.12,6.12,4.63a3.68,3.68,0,0,0,.47-.15c2.19-.93,2.8-4.45,1.36-7.85-1.34-3.17-4-5.13-6.12-4.63Z"/><path   d="M20,1a1.86,1.86,0,0,1,.33,0C22.15.87,23.82,3.42,24,6.53c.14,2.89-1.07,5.46-2.75,5.85a1.86,1.86,0,0,1-.33,0A2.91,2.91,0,0,1,18.57,11a7.9,7.9,0,0,1-1.32-4.16C17.11,4,18.32,1.39,20,1M19.79.07c-2.13.49-3.65,3.4-3.49,6.83.18,3.69,2.26,6.59,4.64,6.47a2.84,2.84,0,0,0,.5-.06c2.12-.5,3.65-3.4,3.48-6.83C24.74,2.79,22.67-.11,20.29,0a4,4,0,0,0-.5.07Z"/></g></g></svg>