<svg xmlns="http://www.w3.org/2000/svg" viewBox="0 0 83.84 58.46"><defs><style>.cls-1{fill:#2ba0c3;}</style></defs><g id="Capa_2" data-name="Capa 2"><g id="Capa_1-2" data-name="Capa 1"><path class="cls-1" d="M82.38,23.7H57V1.46A1.46,1.46,0,0,0,55.55,0H28.3a1.45,1.45,0,0,0-1.45,1.46v9.65H1.45A1.45,1.45,0,0,0,0,12.57V57a1.45,1.45,0,0,0,1.45,1.46H82.38A1.46,1.46,0,0,0,83.84,57V25.15A1.45,1.45,0,0,0,82.38,23.7ZM66.54,43.46h4.85V56.13H66.54ZM80.93,55.55h-7.8v-13a.87.87,0,0,0-.87-.87h-6.6a.87.87,0,0,0-.87.87v13H57V26.61H80.93ZM2.91,14H26.85V55.55h-7.8v-13a.87.87,0,0,0-.87-.87h-6.6a.87.87,0,0,0-.87.87v13H2.91Zm9.54,29.44H17.3V56.13H12.45ZM54.08,25.15v30.4H45.72v-13a.88.88,0,0,0-.88-.87h-6.6a.87.87,0,0,0-.87.87v13H29.76V2.91H54.1V25A1,1,0,0,0,54.08,25.15Zm-15,31V43.46H44V56.13Z"/><path class="cls-1" d="M40.34,8.43H33.82a.87.87,0,0,0-.87.88v6.52a.87.87,0,0,0,.87.87h6.52a.87.87,0,0,0,.87-.87V9.31A.87.87,0,0,0,40.34,8.43ZM39.47,15H34.69V10.18h4.78Z"/><path class="cls-1" d="M50.24,8.43H43.72a.88.88,0,0,0-.88.88v6.52a.88.88,0,0,0,.88.87h6.52a.87.87,0,0,0,.87-.87V9.31A.87.87,0,0,0,50.24,8.43ZM49.36,15H44.59V10.18h4.77Z"/><path class="cls-1" d="M40.34,19.11H33.82A.87.87,0,0,0,33,20V26.5a.87.87,0,0,0,.87.87h6.52a.87.87,0,0,0,.87-.87V20A.87.87,0,0,0,40.34,19.11Zm-.87,6.52H34.69V20.85h4.78Z"/><path class="cls-1" d="M50.24,19.11H43.72a.88.88,0,0,0-.88.87V26.5a.88.88,0,0,0,.88.87h6.52a.87.87,0,0,0,.87-.87V20A.87.87,0,0,0,50.24,19.11Zm-.88,6.52H44.59V20.85h4.77Z"/><path class="cls-1" d="M40.34,29.78H33.82a.87.87,0,0,0-.87.87v6.52a.87.87,0,0,0,.87.88h6.52a.87.87,0,0,0,.87-.88V30.65A.87.87,0,0,0,40.34,29.78Zm-.87,6.52H34.69V31.53h4.78Z"/><path class="cls-1" d="M50.24,29.78H43.72a.88.88,0,0,0-.88.87v6.52a.88.88,0,0,0,.88.88h6.52a.87.87,0,0,0,.87-.88V30.65A.87.87,0,0,0,50.24,29.78Zm-.88,6.52H44.59V31.53h4.77Z"/><path class="cls-1" d="M6.67,27.37h6.52a.87.87,0,0,0,.87-.87V20a.87.87,0,0,0-.87-.87H6.67A.87.87,0,0,0,5.8,20V26.5A.87.87,0,0,0,6.67,27.37Zm.87-6.52h4.78v4.78H7.54Z"/><path class="cls-1" d="M16.57,27.37h6.52A.87.87,0,0,0,24,26.5V20a.87.87,0,0,0-.87-.87H16.57a.88.88,0,0,0-.88.87V26.5A.88.88,0,0,0,16.57,27.37Zm.87-6.52h4.77v4.78H17.44Z"/><path class="cls-1" d="M13.19,38.05a.87.87,0,0,0,.87-.88V30.65a.87.87,0,0,0-.87-.87H6.67a.87.87,0,0,0-.87.87v6.52a.87.87,0,0,0,.87.88ZM7.54,31.53h4.78V36.3H7.54Z"/><path class="cls-1" d="M16.57,38.05h6.52a.87.87,0,0,0,.87-.88V30.65a.87.87,0,0,0-.87-.87H16.57a.88.88,0,0,0-.88.87v6.52A.88.88,0,0,0,16.57,38.05Zm.87-6.52h4.77V36.3H17.44Z"/><path class="cls-1" d="M60.75,38.05h6.52a.87.87,0,0,0,.87-.88V30.65a.87.87,0,0,0-.87-.87H60.75a.87.87,0,0,0-.87.87v6.52A.87.87,0,0,0,60.75,38.05Zm.88-6.52H66.4V36.3H61.63Z"/><path class="cls-1" d="M70.65,38.05h6.52a.87.87,0,0,0,.87-.88V30.65a.87.87,0,0,0-.87-.87H70.65a.87.87,0,0,0-.87.87v6.52A.87.87,0,0,0,70.65,38.05Zm.87-6.52H76.3V36.3H71.52Z"/></g></g></svg>