<svg xmlns="http://www.w3.org/2000/svg" viewBox="0 0 34.03 32.78"><g id="Capa_2" data-name="Capa 2"><g id="Capa_1-2" data-name="Capa 1"><path d="M15.11,13.93h0a.59.59,0,0,0,.45.2.59.59,0,0,0,.46-.2h0l5.92-6.27h0a4.69,4.69,0,0,0,1-1.64,4.75,4.75,0,0,0,.24-1.52A4.35,4.35,0,0,0,19,0a4.09,4.09,0,0,0-3.4,1.88A4.12,4.12,0,0,0,12.15,0,4.35,4.35,0,0,0,7.94,4.49,4.89,4.89,0,0,0,8.17,6,4.69,4.69,0,0,0,9,7.42H9a4.81,4.81,0,0,0,.44.47h0ZM9.19,5.6a3.51,3.51,0,0,1,.74-3.48,3,3,0,0,1,2.22-1,3.14,3.14,0,0,1,2.85,2,.6.6,0,0,0,1.11,0,3.14,3.14,0,0,1,2.85-2,3,3,0,0,1,2.22,1,3.45,3.45,0,0,1,.92,2.37,3.51,3.51,0,0,1-.93,2.38l-5.61,5.94-5.4-5.73,0,0a4.12,4.12,0,0,1-.35-.37A3.52,3.52,0,0,1,9.19,5.6Z"/><path d="M33.9,20.42a.69.69,0,0,0-.56-.28c-1.71,0-2.87-.93-4.23-2l-.89-.69a8.27,8.27,0,0,0-5.12-1.89c-1,0-1.73,0-2.35,0H16a2.05,2.05,0,0,0,0,4.1h4.44a1.3,1.3,0,0,1,1,1.31,1.38,1.38,0,0,1-.59,1.14l-1.64.46c-.55.15-1.11.3-1.69.48l-.12,0-4.41,1.23a1.47,1.47,0,0,1-.31,0l-7-4.81-1.27-1-.08-.05-.21-.13a3.12,3.12,0,0,0-.42-.18l-.35-.08a2.46,2.46,0,0,0-.86,0A2.83,2.83,0,0,0,0,21a2.94,2.94,0,0,0,.78,2l0,0a2.48,2.48,0,0,0,.61.48l11.57,9,.2.11.12,0a2.94,2.94,0,0,0,1,.2,2.68,2.68,0,0,0,.62-.07h.1c4.14-1.13,11.63-3.16,15.18-4.09l.08,0,.23-.09A12.75,12.75,0,0,1,33.33,28a.69.69,0,0,0,.69-.69v-.45a.53.53,0,0,0,0-.13V21A.66.66,0,0,0,33.9,20.42Zm-1.26,6.21a18.81,18.81,0,0,0-2.48.53l-.07,0-.23.09c-3.57.94-11,3-15.16,4.08h0a1.54,1.54,0,0,1-.85-.07l-.05,0L2.24,22.36a.24.24,0,0,0-.09-.06A1.35,1.35,0,0,1,1.82,22h0A1.54,1.54,0,0,1,1.39,21a1.43,1.43,0,0,1,1.24-1.48h.08a1,1,0,0,1,.39,0l.15,0,.18.08.12.08h0l1.24,1,0,0,7.1,4.9a.55.55,0,0,0,.22.1,2.82,2.82,0,0,0,.9.08l.13,0c.33-.08,1.85-.51,4.52-1.26l.13,0c.58-.17,1.12-.33,1.66-.47l1.76-.49.16-.07A2.77,2.77,0,0,0,22.75,21a2.68,2.68,0,0,0-2.17-2.69H16a.62.62,0,0,1-.57-.66A.61.61,0,0,1,16,17h4.82c.62,0,1.38,0,2.33,0a6.83,6.83,0,0,1,4.29,1.61l.86.67a8.68,8.68,0,0,0,4.39,2.25v5.15Z"/></g></g></svg>