<svg xmlns="http://www.w3.org/2000/svg" viewBox="0 0 32.16 33.95"><g id="Capa_2" data-name="Capa 2"><g id="Capa_1-2" data-name="Capa 1"><path d="M1.63,22.54a1.91,1.91,0,0,1,3.81,0,.91.91,0,0,0,.08.37,3.53,3.53,0,0,0,7-.2,1,1,0,0,0,0-.17,1.91,1.91,0,0,1,3.81,0,.78.78,0,0,0,.09.37,3.53,3.53,0,0,0,7-.2,1,1,0,0,0,0-.17,1.9,1.9,0,0,1,3.8,0,.82.82,0,0,0,.82.82h0a.82.82,0,0,0,.81-.82,3.53,3.53,0,0,0-7-.33.86.86,0,0,0,0,.16,1.91,1.91,0,1,1-3.81,0,.74.74,0,0,0-.09-.36,3.53,3.53,0,0,0-7,.2.88.88,0,0,0,0,.16,1.9,1.9,0,1,1-3.8,0A.74.74,0,0,0,7,22a3.53,3.53,0,0,0-7,.53.82.82,0,0,0,.82.82h.1A.81.81,0,0,0,1.63,22.54Z"/><path d="M24.75,3.53V6.69H16.22V3.53a2.08,2.08,0,0,1,4.15,0,.82.82,0,0,0,.82.82A.82.82,0,0,0,22,3.53a3.71,3.71,0,0,0-7.41,0V16.67a.82.82,0,0,0,.81.82.82.82,0,0,0,.82-.82v-2.8h8.53v2.8a.82.82,0,0,0,.81.82.82.82,0,0,0,.82-.82V3.53a2.08,2.08,0,0,1,4.15,0,.82.82,0,0,0,.82.82.82.82,0,0,0,.81-.82,3.71,3.71,0,0,0-7.41,0Zm-8.53,8.71V8.32h8.53v3.92Z"/><path d="M25.36,27.06a3.53,3.53,0,0,0-3.52,3.19,1,1,0,0,0,0,.17,1.91,1.91,0,0,1-3.81,0,.71.71,0,0,0-.09-.36,3.53,3.53,0,0,0-7,.19,1,1,0,0,0,0,.17,1.9,1.9,0,0,1-3.8,0A.71.71,0,0,0,7,30.06a3.53,3.53,0,0,0-7,.53.82.82,0,0,0,.82.81h.1a.81.81,0,0,0,.71-.8,1.91,1.91,0,0,1,3.81,0,.86.86,0,0,0,.08.36,3.53,3.53,0,0,0,7-.2.86.86,0,0,0,0-.16,1.91,1.91,0,0,1,3.81,0,.74.74,0,0,0,.09.36,3.53,3.53,0,0,0,7-.2.88.88,0,0,0,0-.16,1.9,1.9,0,0,1,3.8,0,.82.82,0,0,0,.82.81h0a.81.81,0,0,0,.81-.81,3.51,3.51,0,0,0-3.53-3.53Z"/></g></g></svg>