<svg xmlns="http://www.w3.org/2000/svg" viewBox="0 0 28.2 38.16"><g id="Capa_2" data-name="Capa 2"><g id="Capa_1-2" data-name="Capa 1"><path d="M11.11.1A3.53,3.53,0,0,0,6.86,2.68L.1,30.28a3.5,3.5,0,0,0,.41,2.66,3.54,3.54,0,0,0,2.17,1.59l14.41,3.53a4,4,0,0,0,.84.1,3.51,3.51,0,0,0,3.4-2.68L28.1,7.88a3.54,3.54,0,0,0-.41-2.66,3.5,3.5,0,0,0-2.17-1.59ZM26.59,7.51l-6.76,27.6a1.92,1.92,0,0,1-.89,1.21,1.89,1.89,0,0,1-1.48.23L3.05,33a2,2,0,0,1-1.22-.89,1.92,1.92,0,0,1-.22-1.48L8.37,3A2,2,0,0,1,10.74,1.6L25.15,5.14A1.94,1.94,0,0,1,26.36,6,1.91,1.91,0,0,1,26.59,7.51Z"/><path d="M12.65,9.05a2.48,2.48,0,0,0,.54.06,2.28,2.28,0,0,0,2.2-1.73,2.27,2.27,0,0,0-1.66-2.74,2.27,2.27,0,1,0-1.08,4.41ZM12.49,5.7a1.32,1.32,0,0,1,.69-.2,1.86,1.86,0,0,1,.33,0A1.34,1.34,0,0,1,13.88,8,1.34,1.34,0,0,1,12.49,5.7Z"/><path d="M14.05,12.87a2.27,2.27,0,0,0-3.38-2.48,2.22,2.22,0,0,0-1,1.4,2.26,2.26,0,0,0,1.66,2.74,2.59,2.59,0,0,0,.55.07,2.28,2.28,0,0,0,2.2-1.73Zm-1.51.6a1.34,1.34,0,0,1-2-1.46,1.35,1.35,0,0,1,.61-.83,1.31,1.31,0,0,1,.69-.19,1.66,1.66,0,0,1,.32,0,1.39,1.39,0,0,1,.83.61,1.34,1.34,0,0,1,.16,1A1.36,1.36,0,0,1,12.54,13.47Z"/><path d="M11,15.79a2.26,2.26,0,0,0-2.48,3.38,2.21,2.21,0,0,0,1.4,1,2,2,0,0,0,.54.07,2.28,2.28,0,0,0,2.2-1.73A2.25,2.25,0,0,0,11,15.79Zm.15,3.35a1.34,1.34,0,1,1-.69-2.49,1.22,1.22,0,0,1,.32,0,1.3,1.3,0,0,1,.82.61,1.32,1.32,0,0,1,.16,1A1.35,1.35,0,0,1,11.15,19.14Z"/><path d="M21.34,6.51a2.27,2.27,0,1,0-1.08,4.4,2,2,0,0,0,.55.07A2.23,2.23,0,0,0,22,10.65a2.26,2.26,0,0,0-.64-4.14Zm.16,3.34a1.31,1.31,0,0,1-1,.16,1.3,1.3,0,0,1-.82-.61,1.32,1.32,0,0,1-.16-1,1.34,1.34,0,0,1,1.3-1,1.17,1.17,0,0,1,.32,0A1.33,1.33,0,0,1,22.1,9,1.29,1.29,0,0,1,21.5,9.85Z"/><path d="M20,12a2.26,2.26,0,0,0-2.74,1.66,2.25,2.25,0,0,0,1.66,2.74,2,2,0,0,0,.54.07A2.27,2.27,0,0,0,20,12Zm.15,3.35a1.34,1.34,0,0,1-2-1.47,1.34,1.34,0,0,1,1.3-1,1.22,1.22,0,0,1,.32,0,1.34,1.34,0,0,1,1,1.62A1.32,1.32,0,0,1,20.15,15.34Z"/><path d="M18.61,17.65a2.27,2.27,0,0,0-1.08,4.41,2.5,2.5,0,0,0,.54.07,2.27,2.27,0,0,0,.54-4.48Zm-.86,3.51a1.34,1.34,0,0,1,.32-2.64,1.17,1.17,0,0,1,.32,0,1.33,1.33,0,0,1,1,1.61A1.34,1.34,0,0,1,17.75,21.16Z"/><path d="M12.87,23.05a5.46,5.46,0,1,0-2.6,10.61,5.32,5.32,0,0,0,1.3.16,5.46,5.46,0,0,0,1.3-10.77ZM10.8,31.49a3.23,3.23,0,0,1,.77-6.36,3.44,3.44,0,0,1,.77.09,3.23,3.23,0,0,1-1.54,6.27Z"/><path d="M14.92,13.93a1.47,1.47,0,0,0-.7,2.85A1.47,1.47,0,0,0,16,15.7,1.47,1.47,0,0,0,14.92,13.93Zm-.55,2.27a.87.87,0,0,1,.2-1.71l.21,0a.86.86,0,0,1-.41,1.68Z"/><path d="M11.92,26.93a1.47,1.47,0,0,0-.7,2.85A1.47,1.47,0,0,0,13,28.7,1.47,1.47,0,0,0,11.92,26.93Zm-.55,2.27a.87.87,0,0,1,.2-1.71.76.76,0,0,1,.21,0,.86.86,0,0,1-.41,1.68Z"/><path d="M16.92,8.93a1.47,1.47,0,0,0-.7,2.85A1.47,1.47,0,0,0,18,10.7,1.47,1.47,0,0,0,16.92,8.93Zm-.55,2.27a.87.87,0,0,1,.2-1.71l.21,0a.86.86,0,0,1-.41,1.68Z"/></g></g></svg>