<svg xmlns="http://www.w3.org/2000/svg" viewBox="0 0 27.99 39"><defs><style>.cls-1{fill:#f3a719;}</style></defs><g id="Capa_2" data-name="Capa 2"><g id="Capa_1-2" data-name="Capa 1"><path class="cls-1" d="M6.18,3.24A11,11,0,0,0,14,22.09h0A11,11,0,0,0,14,0,11,11,0,0,0,6.18,3.24ZM22.12,11A8.14,8.14,0,0,1,14,19.17h0A8.13,8.13,0,1,1,22.12,11Z"/><path class="cls-1" d="M22.37,22.49a1.47,1.47,0,0,0-1.88-.08c-.06.05-6.55,4.92-12.58,0a1.45,1.45,0,0,0-1.88,0c-.24.21-5.89,5.23-6,15.07a1.52,1.52,0,0,0,.42,1,1.5,1.5,0,0,0,1,.43H26.52A1.46,1.46,0,0,0,28,37.58C28,37.19,28.23,27.86,22.37,22.49ZM3,36.08A18.45,18.45,0,0,1,7.15,25.49c5.27,3.5,10.93,1.84,14,0,3,3.36,3.67,8.23,3.83,10.61Z"/></g></g></svg>