<svg xmlns="http://www.w3.org/2000/svg" viewBox="0 0 37.2 34.51"><g id="Capa_2" data-name="Capa 2"><g id="Capa_1-2" data-name="Capa 1"><path d="M14.31,30.22a4.29,4.29,0,1,0,4.29-4.29A4.29,4.29,0,0,0,14.31,30.22Zm4.29,3a3,3,0,1,1,3-3A3,3,0,0,1,18.6,33.26Z"/><path d="M1.89,10.78a1.91,1.91,0,0,0,1.32-.56,21.53,21.53,0,0,1,30.77,0,1.88,1.88,0,0,0,1.34.56,1.85,1.85,0,0,0,1.31-.54,1.81,1.81,0,0,0,.56-1.32,1.84,1.84,0,0,0-.53-1.33,25.28,25.28,0,0,0-36.12,0A1.89,1.89,0,0,0,0,8.92a1.88,1.88,0,0,0,1.87,1.86ZM1.43,8.47a24,24,0,0,1,34.34,0,.67.67,0,0,1,.18.44.66.66,0,0,1-.19.44.63.63,0,0,1-.88,0,22.79,22.79,0,0,0-32.56,0,.61.61,0,0,1-.44.19.6.6,0,0,1-.44-.18.61.61,0,0,1-.19-.44A.62.62,0,0,1,1.43,8.47Z"/><path d="M31.89,14.27a18.54,18.54,0,0,0-26.59,0A1.87,1.87,0,0,0,8,16.88a14.78,14.78,0,0,1,21.22,0,1.83,1.83,0,0,0,1.34.57,1.9,1.9,0,0,0,1.31-.53A1.88,1.88,0,0,0,31.89,14.27ZM31,16a.64.64,0,0,1-.89,0,16,16,0,0,0-23,0,.62.62,0,0,1-.89-.87,17.27,17.27,0,0,1,24.8,0A.63.63,0,0,1,31,16Z"/><path d="M26.18,24.82A1.88,1.88,0,0,0,28.05,23a1.86,1.86,0,0,0-.52-1.34,12.36,12.36,0,0,0-17.87,0A1.85,1.85,0,0,0,9.15,23a1.83,1.83,0,0,0,.58,1.31,1.87,1.87,0,0,0,1.29.52h0a1.89,1.89,0,0,0,1.31-.58,8.59,8.59,0,0,1,12.45,0A1.88,1.88,0,0,0,26.18,24.82ZM10.59,23.4a.67.67,0,0,1-.2-.44.63.63,0,0,1,.18-.45,11.09,11.09,0,0,1,16.06,0,.66.66,0,0,1,.17.45.61.61,0,0,1-.19.44.64.64,0,0,1-.89,0,9.84,9.84,0,0,0-14.25,0,.63.63,0,0,1-.88,0Z"/></g></g></svg>