<svg xmlns="http://www.w3.org/2000/svg" viewBox="0 0 38 24.21"><g id="Capa_2"><g><path d="M38,19H0V0H38ZM1,18H37V1H1Z"/><rect x="19" y="4.5" width="10" height="1"/><rect x="32" y="4.5" width="1" height="1"/><path d="M34.5,18.5H3.5v-7h31Zm-30-1h29v-5H4.5Z"/><path d="M29.13,16.13H8.88V14.88H29.13Zm-20-.25H28.88v-.75H9.13Z"/><path d="M10.37,18.64l-.1,2.1-.06,1a1.37,1.37,0,0,1-.2.79c-.25.32-.74.36-1.11.44a2.21,2.21,0,0,0-1.26.59c-.32.35.2.89.53.53a2.34,2.34,0,0,1,1.26-.47,1.87,1.87,0,0,0,1.27-.78A4.27,4.27,0,0,0,11,20.9l.11-2.26c0-.48-.72-.48-.75,0Z"/><path d="M18.57,19c.13,0,.2.38.23.48q.12.55.21,1.11c.14.76.25,1.53.33,2.29a.38.38,0,1,0,.75,0c-.1-.94-.24-1.88-.41-2.81-.13-.71-.23-1.71-1.11-1.82a.38.38,0,1,0,0,.75Z"/><path d="M27.58,18.83c.19.11.23.36.28.56a7.38,7.38,0,0,0,.19.78,7.82,7.82,0,0,0,.65,1.52,7.71,7.71,0,0,0,2.21,2.44c.39.28.77-.37.38-.65a6.76,6.76,0,0,1-2.64-3.95c-.12-.51-.19-1.06-.69-1.35a.38.38,0,0,0-.38.65Z"/><path d="M14,23.38l-.12,0a.38.38,0,0,1-.24-.48l1.5-4.5a.39.39,0,0,1,.48-.24.38.38,0,0,1,.24.48l-1.5,4.5A.38.38,0,0,1,14,23.38Z"/><path  d="M24.5,23.88a.38.38,0,0,1-.35-.24l-2-5a.38.38,0,0,1,.7-.28l2,5a.39.39,0,0,1-.21.49A.35.35,0,0,1,24.5,23.88Z"/></g></g></svg>