<svg xmlns="http://www.w3.org/2000/svg" viewBox="0 0 24.42 37.9"><g id="Capa_2" data-name="Capa 2"><g id="Capa_1-2" data-name="Capa 1"><path d="M24.42,35.64c0-.16.1-3.92-2.27-6.1a.66.66,0,0,0-.84,0,4.07,4.07,0,0,1-4.95,0,.65.65,0,0,0-.84,0,5.07,5.07,0,0,0-.72.81,7.81,7.81,0,0,0-1.32-1.57.65.65,0,0,0-.84,0c-.15.12-3.88,2.89-7.43,0a.65.65,0,0,0-.84,0A11.69,11.69,0,0,0,1,37.24a.7.7,0,0,0,.19.47.66.66,0,0,0,.46.19H16a.65.65,0,0,0,.65-.63,7.16,7.16,0,0,0,0-1h7.15A.66.66,0,0,0,24.42,35.64Zm-22.11,1a10.89,10.89,0,0,1,2.55-6.49c3.39,2.36,6.85.72,8.09,0,1.93,2.07,2.3,5.19,2.37,6.51ZM16.46,35a12.88,12.88,0,0,0-1-3.34,6.42,6.42,0,0,1,.52-.74,5.32,5.32,0,0,0,5.6,0A7.38,7.38,0,0,1,23.09,35Z"/><path d="M17.66,12.58H12.57v1.6A1.45,1.45,0,0,0,14,15.63h4.53l1.28,1.48a.5.5,0,0,0,.37.17.41.41,0,0,0,.19,0,.48.48,0,0,0,.3-.49l-.09-1.12h2.33a1.45,1.45,0,0,0,1.45-1.45V8.45A1.45,1.45,0,0,0,22.93,7H19.76v3.48A2.1,2.1,0,0,1,17.66,12.58Zm2.22-2.07V8h3.05a.48.48,0,0,1,.47.48v5.73a.47.47,0,0,1-.47.47H20.07a.52.52,0,0,0-.36.16.51.51,0,0,0-.13.37l0,.17-.46-.53a.52.52,0,0,0-.37-.17H14a.47.47,0,0,1-.47-.47V12.65h4.18A2.15,2.15,0,0,0,19.88,10.51Z"/><path d="M0,10.48a2.1,2.1,0,0,0,2.1,2.1H7.74l-.15,2a.57.57,0,0,0,.34.57.54.54,0,0,0,.22,0A.57.57,0,0,0,8.57,15l2.12-2.44h7a2.1,2.1,0,0,0,2.1-2.1V2.1A2.1,2.1,0,0,0,17.66,0H2.1A2.1,2.1,0,0,0,0,2.1ZM1.13,2.1a1,1,0,0,1,1-1H17.66a1,1,0,0,1,1,1v8.38a1,1,0,0,1-1,1H10.44a.55.55,0,0,0-.43.2L8.84,13l.08-.93a.61.61,0,0,0-.15-.43.6.6,0,0,0-.42-.18H2.1a1,1,0,0,1-1-1Z"/><path d="M18.75,29.5h0A4.49,4.49,0,0,0,23.24,25a4.49,4.49,0,0,0-7.66-3.17,4.42,4.42,0,0,0-.66.85c0-.2,0-.41,0-.61a6.14,6.14,0,1,0-6.14,6.14h0a6.1,6.1,0,0,0,4.34-1.8,6.19,6.19,0,0,0,1.12-1.54c0,.05,0,.09,0,.14A4.49,4.49,0,0,0,18.75,29.5ZM16.5,22.77a3.13,3.13,0,0,1,2.25-.94A3.18,3.18,0,0,1,21,27.26a3.13,3.13,0,0,1-2.25.94h0a3.18,3.18,0,0,1-2.25-5.43ZM12.23,25.5a4.83,4.83,0,0,1-3.42,1.41h0a4.81,4.81,0,1,1,3.42-1.41Z"/></g></g></svg>