<svg xmlns="http://www.w3.org/2000/svg" viewBox="0 0 65.91 68.55"><defs><style>.cls-1{fill:#2ba0c3;}</style></defs><g id="Capa_2" data-name="Capa 2"><g id="Capa_1-2" data-name="Capa 1"><path class="cls-1" d="M32.94,68.55h.25C51.36,68.42,66,52.93,65.91,34A34.71,34.71,0,0,0,56.11,9.9,32.14,32.14,0,0,0,32.72,0C14.55.13-.13,15.62,0,34.51H0A34.73,34.73,0,0,0,9.81,58.65,32.07,32.07,0,0,0,32.94,68.55ZM32.75,3.23H33a28.94,28.94,0,0,1,20.83,8.92,31.53,31.53,0,0,1,8.89,21.9C62.8,51.17,49.56,65.2,33.16,65.32a28.88,28.88,0,0,1-21-8.92A31.56,31.56,0,0,1,3.23,34.49C3.12,17.38,16.36,3.35,32.75,3.23Z"/><path class="cls-1" d="M24.65,58.94h16.6V42.85H56.68V25.7H41.25V9.62H24.65V25.7H9.22V42.85H24.65ZM20.53,39.62H12.45V28.93H27.88V12.85H38V28.93H53.45V39.62H38V55.71H27.88V39.62Z"/></g></g></svg>