<svg xmlns="http://www.w3.org/2000/svg" viewBox="0 0 17.5 29.9"><g id="Capa_2" data-name="Capa 2"><g id="Capa_1-2" data-name="Capa 1"><path d="M8.75,29.9a8.76,8.76,0,0,0,8.75-8.75c0-.15,0-.3,0-.47a.74.74,0,0,0,0-.33l0-.1a8.65,8.65,0,0,0-.73-2.7C15.44,13,12.77,4.82,9.37.31A.76.76,0,0,0,8.75,0a.77.77,0,0,0-.62.31C4.73,4.82,2.07,13,.78,17.55a8.39,8.39,0,0,0-.73,2.7l0,.1a.76.76,0,0,0,0,.3c0,.18,0,.34,0,.5A8.77,8.77,0,0,0,8.75,29.9ZM1.57,20.59v-.07a.2.2,0,0,0,0-.07,7.15,7.15,0,0,1,.63-2.31s0-.07,0-.11C3.43,13.9,5.78,6.58,8.75,2.11c3,4.47,5.33,11.79,6.51,15.92a.49.49,0,0,0,0,.11,7.13,7.13,0,0,1,.62,2.31s0,0,0,.06v.08c0,.21,0,.39,0,.56a7.21,7.21,0,0,1-14.41,0C1.55,21,1.56,20.8,1.57,20.59Z"/><pat d="M8.77,26.55h0c2,0,6-1.3,6.24-5.76a1.08,1.08,0,0,0-1-1.15h0a1.09,1.09,0,0,0-1.15,1,4.49,4.49,0,0,1-.13.83,3.81,3.81,0,0,1-3,2.76,5.07,5.07,0,0,1-1,.15,1.08,1.08,0,0,0,0,2.16ZM14,20.26h0a.47.47,0,0,1,.44.49,5.57,5.57,0,0,1-5.66,5.18.46.46,0,0,1,0-.92,7.14,7.14,0,0,0,1.1-.16,4.49,4.49,0,0,0,3.49-3.22,4.85,4.85,0,0,0,.15-.94A.47.47,0,0,1,14,20.26Z"/></g></g></svg>