<svg xmlns="http://www.w3.org/2000/svg" viewBox="0 0 59.07 64.38"><defs><style>.cls-1{fill:#2ba0c3;}</style></defs><g id="Capa_2" data-name="Capa 2"><g id="Capa_1-2" data-name="Capa 1"><path class="cls-1" d="M15.82,39.4h4.45v14a.77.77,0,0,0,.76.77h3.91a.77.77,0,0,0,.77-.77V32a.76.76,0,0,0-.77-.77H21.61a.76.76,0,0,0-.76.77,2.67,2.67,0,0,1-.13.63,3,3,0,0,1-.64,1.22,3.12,3.12,0,0,1-1.66.89,18,18,0,0,1-2.63.25.76.76,0,0,0-.73.76v2.85A.76.76,0,0,0,15.82,39.4Zm.76-2.88a14.14,14.14,0,0,0,2.17-.25,4.71,4.71,0,0,0,2.44-1.33,4.52,4.52,0,0,0,1-1.84c0-.11,0-.21.08-.3h1.91V52.6H21.8v-14a.76.76,0,0,0-.77-.77H16.58Z"/><path class="cls-1" d="M30.24,52.5a8.25,8.25,0,0,0,5.47,1.81A7.64,7.64,0,0,0,42,51.71,8.9,8.9,0,0,0,44,46a7.18,7.18,0,0,0-7.33-7.7,7.07,7.07,0,0,0-2.48.38l-.36.16.21-2.49h7a.76.76,0,0,0,.76-.77V32a.76.76,0,0,0-.76-.77H29.6a.76.76,0,0,0-.76.71L28,43.69a.79.79,0,0,0,.74.82l4.17.17a.75.75,0,0,0,.71-.41,1.84,1.84,0,0,1,1.05-.93,3.32,3.32,0,0,1,1.07-.15A1.89,1.89,0,0,1,37.5,44a4,4,0,0,1,.63,2.32,3.74,3.74,0,0,1-.66,2.29,2,2,0,0,1-1.75.79,2,2,0,0,1-1.49-.51,3.24,3.24,0,0,1-.75-1.71.77.77,0,0,0-.76-.63H28.56a.76.76,0,0,0-.56.24.79.79,0,0,0-.21.58A7.12,7.12,0,0,0,30.24,52.5Zm1.88-4.44a4.26,4.26,0,0,0,1,1.86,3.4,3.4,0,0,0,2.6,1,3.52,3.52,0,0,0,3-1.41,5.24,5.24,0,0,0,1-3.2,5.56,5.56,0,0,0-.89-3.18,3.4,3.4,0,0,0-3-1.46,4.81,4.81,0,0,0-1.58.24,3.33,3.33,0,0,0-1.64,1.24L29.61,43l.7-10.25h10v2H33.35a.76.76,0,0,0-.76.7l-.38,4.65a.78.78,0,0,0,.37.72.76.76,0,0,0,.81,0,8.05,8.05,0,0,1,1.36-.76,5.69,5.69,0,0,1,1.94-.28A5.64,5.64,0,0,1,42.49,46a7.28,7.28,0,0,1-1.72,4.78,6.1,6.1,0,0,1-5.06,2,6.71,6.71,0,0,1-4.49-1.45,5.22,5.22,0,0,1-1.8-3.27Z"/><path class="cls-1" d="M52.57,10H50.7a1,1,0,0,0-.46.1V3.77a3.78,3.78,0,0,0-7.55,0V10l-.21,0H16.59a.86.86,0,0,0-.28,0V3.77a3.78,3.78,0,0,0-7.55,0V10A1.22,1.22,0,0,0,8.38,10H6.5A6.51,6.51,0,0,0,0,16.45V57.88a6.51,6.51,0,0,0,6.5,6.5H52.57a6.51,6.51,0,0,0,6.5-6.5V16.45A6.51,6.51,0,0,0,52.57,10ZM44.81,3.77a1.66,1.66,0,1,1,3.31,0V15.13a1.66,1.66,0,1,1-3.31,0Zm-33.94,0a1.66,1.66,0,0,1,3.32,0V15.13a1.66,1.66,0,1,1-3.32,0ZM56.78,57.88a4.22,4.22,0,0,1-4.21,4.21H6.5a4.22,4.22,0,0,1-4.21-4.21V16.45A4.22,4.22,0,0,1,6.5,12.24h.73v2.25a5.26,5.26,0,0,0,10.51,0V12.24h23.6v2.25a5.25,5.25,0,0,0,10.5,0V12.24h.73a4.22,4.22,0,0,1,4.21,4.21Z"/><path class="cls-1" d="M53.45,26.46H5.83a1.14,1.14,0,0,0-1.15,1.15V55.75a4,4,0,0,0,3.94,3.94h42a4,4,0,0,0,3.94-3.94V27.61A1.14,1.14,0,0,0,53.45,26.46ZM52.3,55.75a1.65,1.65,0,0,1-1.65,1.65h-42A1.65,1.65,0,0,1,7,55.75v-27H52.3Z"/></g></g></svg>