<svg xmlns="http://www.w3.org/2000/svg" viewBox="0 0 31.42 21.49"><defs><style>.cls-1{fill:#1b286e;}</style></defs><g id="Capa_2" data-name="Capa 2"><g id="Capa_1-2" data-name="Capa 1"><path class="cls-1" d="M15.85,3.35a8.8,8.8,0,1,0,8.79,8.8A8.81,8.81,0,0,0,15.85,3.35Zm0,16.56a7.77,7.77,0,1,1,7.76-7.76A7.78,7.78,0,0,1,15.85,19.91Z"/><path class="cls-1" d="M31.15.06a.51.51,0,0,0-.52,0c-.16.1-3.81,2.53-3.81,10.63a.51.51,0,0,0,.51.52h3.06V21a.52.52,0,0,0,1,0V.52A.52.52,0,0,0,31.15.06ZM27.85,10.2A15.31,15.31,0,0,1,29.52,3a8.82,8.82,0,0,1,.87-1.27V10.2Z"/><path class="cls-1" d="M5.47,0A.52.52,0,0,0,5,.52V7a.18.18,0,0,1-.17.17H3.51V.52a.52.52,0,1,0-1,0V7.15H1.2A.18.18,0,0,1,1,7V.52a.52.52,0,1,0-1,0V7a1.2,1.2,0,0,0,1.2,1.2H2.48V21a.52.52,0,0,0,1,0V8.18H4.78A1.2,1.2,0,0,0,6,7V.52A.51.51,0,0,0,5.47,0Z"/><path class="cls-1" d="M15.85,7.35a4.8,4.8,0,1,0,4.8,4.8A4.8,4.8,0,0,0,15.85,7.35Zm0,8.77a4,4,0,1,1,4-4A4,4,0,0,1,15.85,16.12Z"/></g></g></svg>